<svg xmlns="http://www.w3.org/2000/svg" width="745" height="749" viewBox="0 0 745 749">
<g>
<path d="M 601.89 691.97 C599.47,692.54 589.40,693.29 579.50,693.65 C564.09,694.20 561.31,694.08 560.23,692.78 C559.26,691.61 559.04,682.06 559.24,650.38 L 559.50 609.50 L 572.50 609.21 C600.48,608.59 612.52,611.57 621.86,621.45 C628.51,628.47 630.90,633.57 632.23,643.55 C635.51,668.03 623.75,686.80 601.89,691.97 ZM 350.83 693.13 C348.77,694.43 337.58,694.15 335.76,692.75 C334.18,691.53 332.24,685.62 326.15,663.50 C324.48,657.45 321.10,645.30 318.62,636.50 C311.61,611.56 311.49,610.94 313.11,609.91 C315.29,608.53 328.60,608.80 329.72,610.25 C330.83,611.70 335.41,629.58 341.12,654.73 C342.39,660.36 343.73,664.63 344.08,664.23 C344.43,663.83 345.19,661.70 345.76,659.50 C346.73,655.77 356.59,621.74 358.92,614.07 C359.49,612.18 360.53,610.28 361.23,609.84 C362.72,608.89 371.13,608.73 373.41,609.60 C374.36,609.97 376.18,614.20 378.03,620.35 C381.78,632.79 382.77,636.12 387.56,652.20 C389.64,659.19 391.66,664.71 392.05,664.47 C392.45,664.22 394.20,657.83 395.95,650.26 C401.86,624.74 405.26,611.51 406.26,610.25 C406.90,609.44 410.02,609.00 415.15,609.00 C424.56,609.00 425.02,609.54 422.64,617.82 C417.61,635.27 412.83,652.42 404.33,683.50 C401.68,693.19 400.90,694.00 394.23,693.99 C393.66,693.98 393.13,693.99 392.62,693.99 C389.45,694.00 387.42,694.01 385.89,693.14 C382.97,691.49 381.86,686.63 377.94,672.50 C371.34,648.70 369.06,640.91 368.37,639.79 C367.32,638.09 366.26,640.86 361.93,656.66 L 355.00 681.89 C353.43,687.61 351.55,692.67 350.83,693.13 ZM 487.80 692.80 C486.21,694.39 474.86,694.35 472.68,692.75 C471.11,691.60 471.00,688.16 471.24,650.50 L 471.50 609.50 L 479.06 609.21 C479.53,609.19 479.97,609.17 480.39,609.16 C482.98,609.04 484.61,608.97 486.02,609.50 C488.62,610.47 490.45,613.47 496.21,622.00 C499.73,627.22 507.31,638.47 513.06,647.00 L 523.50 662.50 L 523.77 637.08 C523.95,619.93 524.40,611.22 525.17,610.29 C526.00,609.30 528.41,609.00 533.91,609.21 L 541.50 609.50 L 541.76 650.93 C541.97,683.42 541.75,692.54 540.76,693.17 C540.07,693.61 536.74,693.98 533.36,693.98 C532.66,693.99 532.05,694.01 531.48,694.03 C530.34,694.08 529.42,694.11 528.55,693.94 C524.53,693.13 521.40,687.87 501.56,658.50 C500.40,656.80 499.36,655.23 498.41,653.80 C493.87,647.01 491.50,643.46 490.27,643.81 C488.92,644.21 488.94,649.27 488.98,659.86 C488.99,661.90 489.00,664.13 489.00,666.58 C489.00,684.71 488.67,691.93 487.80,692.80 ZM 180.50 655.50 L 179.50 693.50 L 171.99 693.79 C167.00,693.98 164.06,693.66 163.24,692.84 C161.30,690.90 161.46,611.69 163.41,610.08 C164.28,609.35 167.61,609.02 172.16,609.20 L 179.50 609.50 L 180.50 646.35 L 193.85 628.43 C201.20,618.57 208.15,610.15 209.29,609.71 C210.44,609.28 214.78,609.05 218.93,609.21 C224.91,609.44 226.54,609.83 226.78,611.10 C227.08,612.68 223.19,618.18 207.08,638.91 C202.64,644.63 199.00,649.51 199.00,649.75 C199.00,649.99 205.81,658.81 214.14,669.35 C222.47,679.88 229.68,689.01 230.18,689.64 C230.74,690.37 230.44,691.42 229.37,692.49 C227.98,693.88 226.17,694.13 219.49,693.85 C214.40,693.63 210.67,692.97 209.62,692.10 C208.69,691.33 201.76,682.78 194.22,673.10 ZM 131.84 692.55 C123.57,695.16 110.88,695.38 102.32,693.07 C94.69,691.00 89.57,688.73 88.43,686.89 C88.05,686.28 89.01,683.12 90.55,679.89 C93.81,673.08 95.09,672.71 103.76,676.00 C111.18,678.82 122.73,678.78 126.37,675.93 C128.99,673.87 129.78,670.18 128.38,666.54 C127.57,664.45 122.54,661.95 112.35,658.59 C102.89,655.47 96.43,651.46 93.26,646.75 C90.60,642.78 88.81,634.28 89.67,629.75 C90.56,625.08 93.75,618.58 96.30,616.22 C104.22,608.89 120.96,606.23 134.00,610.21 C141.67,612.55 146.00,615.15 146.00,617.41 C146.00,619.51 141.14,628.18 139.34,629.29 C138.87,629.58 135.34,628.74 131.49,627.43 C120.17,623.58 111.49,624.44 109.11,629.66 C106.18,636.10 109.74,639.91 122.42,643.87 C138.12,648.78 143.54,652.62 146.46,660.89 C151.20,674.33 144.65,688.52 131.84,692.55 ZM 278.42 693.39 C276.55,694.11 265.06,694.07 263.25,693.34 C262.33,692.97 262.00,688.85 262.00,677.62 L 262.00 662.40 L 253.38 646.95 C251.56,643.69 249.91,640.72 248.40,638.03 C235.50,614.93 233.80,611.89 234.60,610.95 C234.81,610.69 235.20,610.59 235.61,610.30 C236.91,609.34 239.88,609.01 245.38,609.21 C246.35,609.25 247.19,609.25 247.93,609.25 C249.59,609.25 250.74,609.25 251.74,609.64 C254.47,610.70 256.08,614.63 263.76,629.25 C267.44,636.26 270.74,642.00 271.09,642.00 C271.44,642.00 275.24,635.36 279.52,627.25 C283.81,619.14 287.99,611.71 288.81,610.75 C290.02,609.34 291.94,609.00 298.65,609.00 C306.94,609.00 307.00,609.02 307.00,611.55 C307.00,612.96 304.37,618.69 301.15,624.30 C297.93,629.91 291.86,640.82 287.65,648.54 L 280.00 662.57 L 280.00 677.68 C280.00,690.53 279.76,692.88 278.42,693.39 ZM 577.67 676.33 C578.92,677.59 592.63,677.00 597.77,675.48 C608.90,672.17 612.96,665.64 612.95,651.00 C612.95,642.55 612.65,640.95 610.23,636.50 C606.21,629.14 600.71,626.66 587.25,626.16 L 577.00 625.77 L 577.00 650.72 C577.00,664.44 577.30,675.97 577.67,676.33 ZM 453.50 609.50 L 453.50 693.50 L 445.99 693.79 C441.00,693.98 438.06,693.66 437.24,692.84 C436.29,691.89 436.00,681.90 436.00,650.82 L 436.00 610.04 L 438.28 609.47 C439.54,609.15 443.47,609.03 447.03,609.20 Z" fill="rgb(22,59,94)"/>
<path d="M 528.30 562.65 C527.52,564.69 192.00,564.66 192.00,562.63 C192.00,561.62 189.62,561.07 183.02,560.56 C178.09,560.17 173.60,560.13 173.06,560.47 C172.51,560.80 170.63,559.71 168.88,558.04 C166.33,555.60 164.88,555.02 161.60,555.10 C156.88,555.21 149.00,551.70 149.00,549.48 C149.00,547.81 145.77,547.52 143.11,548.94 C140.56,550.31 135.22,546.81 134.44,543.28 C134.11,541.75 133.68,539.98 133.49,539.35 C133.30,538.72 131.20,537.88 128.82,537.50 C124.53,536.80 118.00,531.95 118.00,529.46 C118.00,528.83 117.10,527.50 116.00,526.50 C114.90,525.50 114.00,524.09 114.00,523.35 C114.00,522.62 113.06,521.45 111.90,520.76 C110.75,520.07 108.67,517.03 107.29,514.00 C105.90,510.98 104.21,507.83 103.52,507.00 C102.83,506.17 101.98,504.27 101.62,502.78 C101.27,501.28 100.16,499.26 99.17,498.28 C98.08,497.20 97.26,494.72 97.10,492.00 C96.95,489.52 96.15,486.75 95.33,485.83 C94.44,484.83 93.83,482.21 93.84,479.33 C93.84,476.67 93.05,472.25 92.08,469.50 C90.60,465.26 90.45,462.68 91.07,452.50 C91.48,445.90 91.74,413.05 91.66,379.50 C91.57,345.95 91.79,321.20 92.14,324.50 C92.49,327.80 92.83,338.91 92.89,349.19 C92.96,360.45 93.40,368.13 94.00,368.50 C94.55,368.84 95.03,371.23 95.07,373.81 C95.11,376.39 95.45,377.83 95.82,377.00 C96.33,375.88 98.23,375.50 103.39,375.50 C108.96,375.50 110.45,375.16 111.14,373.75 L 112.86 370.25 C113.91,368.11 118.02,367.94 118.98,370.00 C121.17,374.68 121.92,375.50 124.00,375.50 C126.08,375.50 126.83,374.68 129.02,370.00 C129.59,368.77 132.28,368.50 144.00,368.50 C144.96,368.50 145.85,368.50 146.68,368.50 C154.48,368.48 157.06,368.48 158.53,369.76 C159.41,370.53 159.89,371.77 160.85,373.75 C161.32,374.71 163.01,375.65 164.60,375.84 C168.21,376.26 170.00,377.68 170.00,380.12 C170.00,381.30 170.71,382.00 171.89,382.00 C174.04,382.00 175.14,378.37 175.30,370.75 C175.39,366.67 175.69,366.00 177.45,365.97 C179.32,365.94 179.35,365.85 177.75,364.92 C174.82,363.21 175.79,362.09 179.66,362.72 C181.67,363.05 184.14,364.14 185.16,365.16 C186.17,366.17 187.56,367.04 188.25,367.09 C188.94,367.13 193.55,367.56 198.50,368.03 C216.46,369.74 233.57,370.10 291.50,370.00 C342.54,369.90 450.63,369.19 459.50,368.90 C464.77,368.72 474.13,366.19 476.10,364.41 C477.14,363.46 478.00,363.05 478.00,363.50 C478.00,363.95 478.79,363.68 479.75,362.90 C482.28,360.88 486.00,358.89 486.00,359.56 C486.00,360.63 483.43,362.73 481.30,363.41 C478.95,364.15 477.29,367.26 478.94,367.81 C480.80,368.43 480.08,370.00 477.94,370.00 C476.81,370.00 476.12,369.61 476.42,369.13 C476.97,368.23 468.63,369.49 466.88,370.57 C466.34,370.91 466.07,371.70 466.28,372.33 C466.87,374.12 464.43,375.99 461.32,376.12 L 458.50 376.24 L 461.50 377.00 C463.15,377.42 463.85,377.82 463.06,377.88 C460.20,378.12 465.42,380.94 468.77,380.97 C471.31,380.99 472.25,380.47 472.95,378.64 C473.44,377.34 474.78,376.03 475.92,375.73 C477.07,375.43 478.00,374.47 478.00,373.59 C478.00,372.72 478.45,372.00 479.00,372.00 C479.55,372.00 480.00,372.67 480.00,373.50 C480.00,374.33 480.44,375.00 480.99,375.00 C481.53,375.00 482.90,375.79 484.02,376.75 C486.22,378.64 490.00,379.31 490.00,377.80 C490.00,377.30 490.36,377.10 490.80,377.38 C491.24,377.65 492.25,377.45 493.05,376.95 C493.85,376.44 493.99,376.02 493.37,376.02 C491.17,375.99 490.98,371.67 493.09,369.70 C495.18,367.75 495.15,365.29 493.05,365.78 C491.31,366.17 492.80,361.93 495.21,359.63 C496.55,358.35 497.49,358.09 498.20,358.80 C499.41,360.01 499.59,366.32 498.53,370.25 C497.89,372.62 498.08,373.00 499.89,373.00 C501.05,373.00 502.00,372.39 502.00,371.65 C502.00,370.92 502.90,369.50 504.00,368.50 C505.72,366.94 506.00,366.91 506.00,368.27 C506.00,370.36 496.18,378.92 493.00,379.60 C491.62,379.90 488.65,381.01 486.39,382.07 C484.13,383.13 481.81,384.00 481.22,384.00 C480.64,384.00 479.98,384.56 479.75,385.25 C479.41,386.24 479.00,386.23 477.76,385.21 C476.20,383.92 471.06,384.48 470.00,386.05 C469.21,387.23 272.00,387.90 272.00,386.73 C272.00,386.08 268.53,385.97 262.25,386.41 C256.89,386.79 247.95,387.04 242.40,386.97 C234.65,386.88 231.95,387.20 230.80,388.34 C229.98,389.16 228.68,389.80 227.91,389.76 C220.25,389.36 211.94,390.20 210.64,391.50 C209.82,392.33 208.27,393.00 207.19,393.00 C204.42,393.00 203.07,395.07 204.08,397.75 C204.68,399.34 205.75,400.00 207.72,400.01 C211.96,400.01 217.74,401.87 218.33,403.42 C218.75,404.50 221.07,404.70 229.39,404.37 C236.56,404.08 241.97,404.41 246.33,405.43 C251.81,406.69 269.62,406.91 368.54,406.90 C449.01,406.90 484.94,406.57 486.33,405.82 C487.43,405.23 491.16,404.81 494.60,404.89 C498.06,404.96 501.16,404.55 501.52,403.97 C502.43,402.50 509.00,398.45 512.00,397.51 C515.19,396.51 530.18,383.09 529.44,381.90 C529.13,381.40 529.30,381.00 529.82,381.00 C531.16,381.00 538.00,367.11 538.00,364.38 C538.00,361.59 540.84,352.80 542.09,351.74 C542.58,351.32 542.77,351.28 542.50,351.65 C542.23,352.02 542.55,352.95 543.19,353.73 C543.90,354.58 544.00,355.42 543.44,355.83 C542.92,356.20 542.42,357.69 542.33,359.15 C542.20,361.01 542.72,361.96 544.06,362.31 C545.12,362.58 546.40,363.93 546.92,365.30 C547.97,368.06 547.27,372.28 545.90,371.44 C545.42,371.14 545.29,371.59 545.62,372.45 C546.00,373.45 545.65,374.00 544.61,374.00 C543.72,374.00 543.00,374.38 543.00,374.83 C543.00,376.01 549.24,375.93 550.75,374.74 C552.55,373.32 552.29,370.27 550.25,369.05 C548.91,368.24 549.78,368.05 554.00,368.25 C559.14,368.48 559.52,368.67 559.81,371.18 C560.40,376.28 561.13,376.42 578.46,374.78 C580.92,374.55 581.53,373.94 582.09,371.20 C582.99,366.82 583.56,366.40 586.90,367.65 C588.45,368.24 593.35,368.52 597.81,368.28 L 605.90 367.85 L 606.76 371.17 C607.40,373.64 608.25,374.59 610.06,374.84 C611.40,375.03 613.17,375.78 614.00,376.51 C616.27,378.53 621.00,379.49 621.00,377.94 C621.00,377.24 621.31,376.97 621.68,377.35 C622.78,378.44 624.99,372.15 625.10,367.64 C625.19,364.09 625.31,363.85 626.00,366.00 C626.55,367.72 626.87,365.68 627.02,359.50 C627.14,354.55 627.60,349.15 628.04,347.50 C628.48,345.85 628.60,370.83 628.30,403.00 C627.95,440.97 628.12,463.43 628.79,467.00 C629.82,472.57 628.89,482.77 627.23,483.92 C625.93,484.83 623.00,491.59 623.00,493.70 C623.00,494.75 622.61,496.03 622.13,496.55 C621.65,497.07 620.17,500.20 618.84,503.50 C615.70,511.28 610.08,521.03 608.36,521.69 C607.61,521.98 607.00,522.81 607.00,523.53 C607.00,524.26 605.88,525.74 604.51,526.81 C603.14,527.89 601.87,529.77 601.68,531.00 C601.34,533.23 599.57,534.54 592.90,537.49 C590.92,538.37 587.56,540.68 585.44,542.62 C580.69,546.97 578.82,548.00 575.69,548.00 C573.93,548.00 572.90,548.82 572.04,550.91 C570.46,554.71 566.21,556.44 560.41,555.64 C556.93,555.17 554.88,555.50 551.68,557.07 C549.28,558.25 543.52,559.59 538.16,560.21 C532.07,560.92 528.64,561.77 528.30,562.65 ZM 388.41 495.25 C390.74,497.60 408.98,497.78 413.36,495.49 C414.94,494.67 417.01,494.00 417.97,494.00 C418.92,494.00 421.07,492.76 422.73,491.25 C424.40,489.74 428.28,486.25 431.35,483.50 C435.20,480.06 436.96,477.74 436.97,476.07 C436.99,474.73 437.96,471.66 439.13,469.24 C440.70,465.99 440.96,464.56 440.13,463.73 C439.51,463.11 439.00,459.98 439.00,456.79 C439.00,453.59 438.57,450.19 438.05,449.24 C437.53,448.28 436.85,445.92 436.53,444.00 C435.94,440.47 431.70,435.14 425.14,429.73 C422.85,427.83 420.80,427.01 418.64,427.14 C414.81,427.36 409.00,426.12 409.00,425.08 C409.00,423.26 403.25,422.00 394.95,422.00 C388.87,422.00 386.00,422.37 386.00,423.15 C386.00,424.30 357.23,423.90 330.45,422.37 C320.69,421.81 319.20,421.94 317.63,423.51 C316.10,425.04 314.51,425.21 305.68,424.79 C296.11,424.32 290.49,425.22 290.10,427.28 C290.02,427.70 291.15,429.16 292.62,430.53 C294.69,432.44 296.37,433.00 300.09,433.00 C302.72,433.00 305.11,433.37 305.40,433.83 C305.93,434.70 321.83,437.36 323.54,436.87 C324.07,436.71 326.28,437.20 328.45,437.94 C331.47,438.97 336.34,439.14 348.95,438.67 C358.83,438.30 369.53,438.49 375.50,439.15 C385.95,440.30 388.72,440.39 398.31,439.87 C401.50,439.70 404.42,440.00 404.81,440.53 C405.19,441.06 406.40,442.00 407.50,442.61 C408.60,443.22 409.50,444.34 409.50,445.11 C409.50,445.87 410.48,446.64 411.68,446.81 C414.37,447.19 415.40,448.46 416.95,453.25 C417.61,455.31 418.57,457.00 419.08,457.00 C419.58,457.00 420.00,458.12 420.00,459.50 C420.00,460.88 419.55,462.00 419.00,462.00 C418.45,462.00 418.00,462.48 418.00,463.06 C418.00,464.78 410.83,472.85 406.83,475.61 C404.24,477.41 402.48,477.97 400.95,477.48 C399.72,477.09 397.71,477.35 396.38,478.07 C394.29,479.18 393.70,479.07 391.66,477.15 C390.31,475.88 388.32,475.08 386.92,475.23 C385.03,475.44 384.43,474.97 384.16,473.07 C383.97,471.74 383.10,469.56 382.23,468.23 C380.94,466.26 380.09,465.93 377.58,466.41 C374.01,467.10 371.00,470.29 371.00,473.36 C371.01,474.54 372.70,478.88 374.75,483.00 C378.07,489.64 378.97,490.67 382.58,492.00 C384.83,492.83 387.45,494.29 388.41,495.25 ZM 168.23 368.03 C165.59,370.11 163.00,370.63 163.00,369.07 C163.00,367.84 168.57,363.90 169.29,364.62 C169.60,364.93 170.67,364.66 171.68,364.02 C173.30,362.98 173.31,362.91 171.75,363.39 C170.61,363.75 170.00,363.41 170.00,362.41 C170.00,361.57 169.60,361.13 169.10,361.44 C168.61,361.74 167.20,361.17 165.97,360.18 C164.04,358.61 163.90,358.06 164.94,356.11 C165.63,354.83 166.75,354.07 167.53,354.37 C168.48,354.74 168.70,354.38 168.26,353.20 C167.71,351.73 167.85,351.68 169.27,352.84 C170.61,353.93 170.69,354.53 169.71,356.15 C168.70,357.80 168.82,358.36 170.44,359.56 C171.51,360.35 172.92,361.00 173.57,361.00 C174.23,361.00 175.00,361.90 175.29,363.00 C175.71,364.60 175.32,365.00 173.35,365.00 C171.66,365.00 171.11,365.39 171.60,366.25 C172.00,366.94 171.96,367.18 171.53,366.78 C171.09,366.39 169.61,366.95 168.23,368.03 ZM 200.60 374.89 C202.02,376.25 203.09,376.50 204.82,375.86 C206.09,375.39 208.48,375.00 210.14,375.00 C213.18,375.00 215.26,373.57 215.79,371.10 C216.01,370.10 215.36,369.93 213.29,370.44 C206.69,372.06 205.00,372.19 205.00,371.11 C205.00,369.47 201.44,369.76 199.98,371.53 C198.93,372.79 199.04,373.38 200.60,374.89 ZM 185.25 377.34 C189.13,378.90 192.31,377.24 191.84,373.89 C191.56,371.92 190.83,371.44 187.75,371.19 C184.19,370.89 184.00,371.03 184.00,373.86 C184.00,375.49 184.56,377.06 185.25,377.34 ZM 493.42 349.39 C490.89,350.36 490.27,350.13 489.71,348.00 C489.35,346.64 488.35,346.00 486.56,346.00 C483.29,346.00 477.00,343.44 477.00,342.11 C477.00,340.33 478.74,339.99 480.01,341.51 C480.69,342.33 482.60,343.00 484.26,343.00 C486.06,343.00 487.99,343.83 489.08,345.09 C490.08,346.24 491.36,346.89 491.94,346.54 C492.59,346.14 492.73,346.57 492.30,347.70 C491.71,349.28 491.83,349.33 493.31,348.13 C494.24,347.37 495.00,347.21 495.00,347.77 C495.00,348.33 494.29,349.06 493.42,349.39 ZM 426.25 378.26 C430.79,378.44 434.84,378.68 435.25,378.80 C435.66,378.91 436.00,378.15 436.00,377.11 C436.00,374.74 430.38,373.57 429.53,375.77 C429.13,376.81 427.55,377.09 423.49,376.84 C420.47,376.65 418.00,376.82 418.00,377.21 C418.00,377.60 421.71,378.07 426.25,378.26 ZM 123.47 349.75 C124.13,352.88 124.04,353.00 121.00,353.00 C117.96,353.00 117.87,352.88 118.55,349.75 C119.27,346.42 120.98,344.53 122.14,345.79 C122.50,346.18 123.10,347.96 123.47,349.75 ZM 538.00 370.96 C538.00,374.07 540.69,373.30 542.70,369.61 C543.78,367.63 543.33,364.00 542.00,364.00 C540.74,364.00 538.00,368.77 538.00,370.96 ZM 113.43 352.12 C112.71,353.27 105.91,353.23 104.05,352.05 C102.89,351.32 103.13,350.90 105.26,349.93 C107.35,348.98 108.56,348.99 110.94,349.98 C112.61,350.67 113.73,351.63 113.43,352.12 ZM 395.08 347.85 C394.14,349.61 393.02,350.00 388.96,350.00 C382.89,350.00 382.41,348.46 388.25,347.74 C390.59,347.45 393.34,346.88 394.37,346.46 C396.02,345.78 396.10,345.94 395.08,347.85 ZM 345.00 375.00 C344.01,376.85 344.24,377.00 347.96,377.00 C350.18,377.00 352.00,376.55 352.00,376.00 C352.00,375.45 351.44,374.99 350.75,374.98 C349.92,374.97 350.00,374.65 351.00,374.00 C352.14,373.26 351.73,373.03 349.29,373.02 C347.08,373.00 345.73,373.63 345.00,375.00 ZM 401.50 376.00 C402.23,377.19 404.73,377.19 407.50,376.00 L 409.50 375.14 L 407.50 375.05 C405.84,374.98 405.75,374.81 407.00,374.00 C408.14,373.26 407.74,373.03 405.31,373.02 C402.02,373.00 400.42,374.25 401.50,376.00 ZM 512.06 356.25 C511.13,360.36 506.47,366.58 505.50,365.00 C504.67,363.66 505.78,362.00 507.50,362.00 C509.36,362.00 510.09,360.62 510.49,356.40 C510.67,354.45 511.08,352.59 511.41,352.26 C512.61,351.06 512.87,352.65 512.06,356.25 ZM 102.22 350.44 C101.16,351.51 98.93,350.99 98.38,349.55 C97.68,347.74 98.69,346.00 100.44,346.00 C101.82,346.00 103.21,349.46 102.22,350.44 ZM 442.34 377.56 C441.79,379.00 444.99,379.68 446.26,378.40 C447.58,377.08 445.63,375.00 443.14,375.08 C441.69,375.12 441.04,375.38 441.69,375.64 C442.35,375.91 442.64,376.78 442.34,377.56 ZM 199.39 350.93 C197.68,350.97 194.08,351.21 191.39,351.47 L 186.50 351.95 L 192.47 350.42 C196.65,349.35 199.06,349.19 200.47,349.88 C202.27,350.75 202.15,350.87 199.39,350.93 ZM 543.00 346.06 C543.00,350.03 541.35,349.80 540.73,345.75 C540.18,342.10 540.39,341.51 541.93,342.46 C542.52,342.82 543.00,344.44 543.00,346.06 ZM 220.19 376.49 C218.16,378.83 218.14,379.00 219.88,379.00 C222.25,379.00 224.12,376.81 223.13,375.21 C222.59,374.33 221.76,374.70 220.19,376.49 ZM 146.00 377.50 C146.00,378.33 146.89,379.00 148.00,379.00 C149.11,379.00 150.00,378.33 150.00,377.50 C150.00,376.67 149.11,376.00 148.00,376.00 C146.89,376.00 146.00,376.67 146.00,377.50 Z" fill="rgb(49,132,194)"/>
<path d="M 168.23 368.03 C169.61,366.95 171.09,366.39 171.53,366.78 C171.96,367.18 172.00,366.94 171.60,366.25 C171.11,365.39 171.66,365.00 173.35,365.00 C175.32,365.00 175.71,364.60 175.29,363.00 C175.09,362.22 174.64,361.54 174.16,361.21 C175.91,361.88 177.94,362.44 179.94,362.76 C181.72,363.05 183.59,363.80 184.34,364.51 C183.12,363.71 181.24,362.98 179.66,362.72 C175.79,362.09 174.82,363.21 177.75,364.92 C179.35,365.85 179.32,365.94 177.45,365.97 C175.69,366.00 175.39,366.67 175.30,370.75 C175.14,378.37 174.04,382.00 171.89,382.00 C170.71,382.00 170.00,381.30 170.00,380.12 C170.00,377.68 168.21,376.26 164.60,375.84 C163.01,375.65 161.32,374.71 160.85,373.75 C159.89,371.77 159.41,370.53 158.53,369.76 C157.06,368.48 154.48,368.48 146.68,368.50 C145.85,368.50 144.96,368.50 144.00,368.50 C132.28,368.50 129.59,368.77 129.02,370.00 C126.83,374.68 126.08,375.50 124.00,375.50 C121.92,375.50 121.17,374.68 118.98,370.00 C118.02,367.94 113.91,368.11 112.86,370.25 L 111.14 373.75 C110.45,375.16 108.96,375.50 103.39,375.50 C98.23,375.50 96.33,375.88 95.82,377.00 C95.45,377.83 95.11,376.39 95.07,373.81 C95.03,371.23 94.55,368.84 94.00,368.50 C93.40,368.13 92.96,360.45 92.89,349.19 C92.83,338.91 92.49,327.80 92.14,324.50 C91.79,321.20 91.57,345.95 91.66,379.50 C91.73,408.96 91.54,437.88 91.22,448.96 C91.85,420.06 91.20,252.43 90.17,195.00 C89.27,144.80 90.62,136.00 92.54,179.50 C93.19,194.00 93.65,197.33 94.93,196.54 C95.41,196.25 96.34,198.25 97.00,201.00 C97.88,204.68 98.67,206.00 99.98,206.00 C100.96,206.00 101.97,205.21 102.22,204.25 C102.62,202.73 103.93,202.51 112.09,202.59 C120.02,202.66 121.55,202.94 121.82,204.34 C122.35,207.02 126.00,206.42 126.00,203.65 C126.00,199.63 129.15,197.76 135.28,198.15 C138.78,198.38 141.26,198.03 142.30,197.16 C144.50,195.34 146.00,196.52 146.00,200.06 C146.00,203.35 148.13,204.01 150.64,201.50 C151.47,200.68 153.45,200.00 155.05,200.00 C158.14,200.00 159.11,198.15 158.70,193.00 C158.53,190.86 158.97,190.45 161.75,190.19 C164.87,189.89 165.00,190.01 165.00,193.49 C165.00,195.47 164.28,198.49 163.40,200.19 L 161.80 203.29 L 165.13 202.62 C167.84,202.08 168.76,202.36 170.09,204.12 C170.99,205.32 172.24,205.97 172.86,205.58 C174.83,204.37 174.10,201.99 171.44,200.98 C169.23,200.14 168.92,199.49 169.19,196.25 L 169.50 192.50 L 175.33 192.20 C182.04,191.85 184.00,192.97 184.00,197.12 C184.00,199.65 184.36,200.00 187.00,200.00 C189.58,200.00 190.01,199.62 190.10,197.25 L 190.20 194.50 L 191.00 197.00 C191.72,199.25 191.81,199.28 191.90,197.37 C192.08,193.58 194.26,192.80 203.20,193.35 C207.76,193.63 211.66,193.89 211.86,193.93 C212.05,193.97 211.99,194.59 211.71,195.31 C211.35,196.26 212.01,196.51 214.10,196.20 C215.70,195.96 217.00,195.39 217.00,194.92 C217.00,194.45 217.75,194.35 218.66,194.70 C219.72,195.11 220.08,194.94 219.66,194.26 C219.24,193.58 219.86,193.27 221.32,193.43 C223.65,193.69 224.28,191.87 222.73,189.37 C222.36,188.77 222.34,187.99 222.69,187.64 C223.62,186.71 227.00,186.86 227.00,187.83 C227.00,189.48 233.43,187.66 235.73,185.36 C237.03,184.06 238.86,182.94 239.80,182.86 C242.18,182.68 248.11,183.01 250.50,183.46 C251.60,183.67 252.81,183.88 253.18,183.92 C253.55,183.97 254.52,184.67 255.34,185.48 C256.16,186.30 259.23,187.25 262.16,187.60 C265.10,187.95 268.07,188.69 268.77,189.26 C270.52,190.66 271.56,189.39 270.11,187.63 C269.17,186.51 269.52,185.63 271.81,183.35 C273.39,181.77 275.65,177.87 276.84,174.69 C279.70,167.05 282.49,161.67 284.43,160.06 C286.97,157.95 286.42,161.10 283.10,167.72 C281.50,170.90 278.76,178.11 277.00,183.75 C275.24,189.39 273.47,194.21 273.07,194.46 C272.67,194.70 269.45,193.71 265.92,192.25 C251.75,186.40 231.49,189.52 217.03,199.77 C209.49,205.12 206.08,208.52 201.24,215.50 C196.66,222.12 193.29,229.86 192.44,235.73 C191.59,241.56 190.41,244.00 188.42,244.00 C186.43,244.00 173.59,249.99 173.17,251.12 C172.98,251.60 172.39,252.00 171.84,252.00 C170.36,252.00 159.00,263.94 159.00,265.49 C159.00,266.23 158.66,266.98 158.25,267.17 C157.84,267.35 156.41,269.52 155.07,272.00 C151.95,277.79 149.76,290.98 151.00,296.52 C151.51,298.76 151.66,301.60 151.33,302.83 C150.99,304.15 151.66,306.98 152.99,309.78 C155.32,314.67 157.95,316.77 167.77,321.60 L 173.03 324.19 L 199.77 323.59 C274.49,321.92 327.12,321.10 370.92,320.95 C416.80,320.78 419.53,320.67 422.80,318.83 C424.69,317.77 426.90,316.24 427.70,315.44 C428.51,314.64 429.64,314.28 430.24,314.65 C430.83,315.01 431.03,314.86 430.69,314.31 C430.35,313.76 431.68,311.88 433.65,310.14 C436.58,307.54 437.14,306.44 436.78,303.99 C436.54,302.34 436.65,301.00 437.01,301.00 C438.66,301.00 438.60,278.74 436.95,278.16 C436.42,277.98 436.24,277.42 436.55,276.91 C436.86,276.41 436.61,276.00 436.00,276.00 C435.39,276.00 435.16,275.55 435.50,275.00 C435.84,274.45 435.64,274.00 435.06,274.00 C434.48,274.00 433.98,273.44 433.96,272.75 C433.90,270.44 429.54,266.34 423.61,263.01 C418.06,259.88 417.19,259.70 408.11,259.74 C399.30,259.79 398.04,260.05 392.93,262.87 C389.87,264.57 386.76,267.08 386.02,268.46 C385.28,269.84 383.91,271.21 382.96,271.51 C380.99,272.14 376.72,282.96 377.19,286.15 C377.43,287.81 376.91,288.33 374.75,288.56 C373.24,288.73 371.22,289.10 370.25,289.39 C369.29,289.68 367.76,289.36 366.86,288.68 C364.93,287.22 363.12,281.37 363.72,278.50 C363.95,277.40 364.29,275.60 364.48,274.50 C364.68,273.40 364.93,272.39 365.04,272.25 C365.16,272.11 365.32,271.66 365.41,271.25 C365.50,270.84 366.10,269.55 366.75,268.38 C367.40,267.22 367.65,265.98 367.30,265.63 C366.95,265.28 367.22,265.00 367.89,265.00 C368.57,265.00 368.84,264.55 368.50,264.00 C368.16,263.45 368.36,263.00 368.94,263.00 C369.52,263.00 370.00,262.53 370.00,261.96 C370.00,258.38 385.16,245.01 389.23,244.99 C389.93,244.99 391.85,244.24 393.50,243.34 C395.85,242.04 399.10,241.70 408.50,241.77 C420.89,241.86 429.76,243.57 432.98,246.48 C433.90,247.32 435.30,248.01 436.08,248.02 C437.83,248.04 443.90,254.11 447.58,259.50 C454.48,269.63 459.01,281.68 458.99,289.83 C458.98,296.13 457.77,303.97 456.89,303.43 C455.76,302.73 454.62,307.58 455.56,309.10 C456.01,309.82 455.89,310.05 455.26,309.66 C454.11,308.95 451.07,313.04 450.48,316.09 C450.28,317.17 449.15,319.38 447.99,321.02 C445.85,324.03 444.35,325.06 445.50,322.75 C445.84,322.06 445.31,322.56 444.31,323.86 C443.31,325.16 441.54,327.27 440.36,328.55 C439.18,329.83 438.42,331.09 438.67,331.34 C438.93,331.59 438.33,331.73 437.35,331.65 C436.35,331.56 435.41,332.31 435.19,333.37 C434.93,334.66 435.19,335.00 436.06,334.46 C436.89,333.95 437.06,334.10 436.55,334.91 C436.14,335.58 435.56,335.89 435.26,335.59 C434.96,335.30 433.40,336.17 431.78,337.53 C430.17,338.89 427.97,340.00 426.89,340.00 C425.81,340.00 422.71,341.12 420.00,342.50 C417.29,343.88 414.36,345.00 413.50,345.00 C412.64,345.00 409.14,346.01 405.72,347.25 L 399.50 349.50 L 393.42 349.50 C394.19,349.17 394.65,348.65 395.08,347.85 C396.10,345.94 396.02,345.78 394.37,346.46 C393.34,346.88 390.59,347.45 388.25,347.74 C384.56,348.19 383.39,348.97 384.56,349.49 L 323.00 349.44 C280.92,349.41 240.18,349.02 232.45,348.56 C219.47,347.80 218.27,347.88 216.55,349.59 C215.04,351.10 213.30,351.42 207.10,351.29 C195.87,351.07 175.97,352.98 172.25,354.64 C171.00,355.20 169.92,356.01 169.37,356.74 C169.46,356.56 169.57,356.36 169.71,356.15 C170.69,354.53 170.61,353.93 169.27,352.84 C167.85,351.68 167.71,351.73 168.26,353.20 C168.70,354.38 168.48,354.74 167.53,354.37 C166.75,354.07 165.63,354.83 164.94,356.11 C163.90,358.06 164.04,358.61 165.97,360.18 C167.20,361.17 168.61,361.74 169.10,361.44 C169.60,361.13 170.00,361.57 170.00,362.41 C170.00,363.41 170.61,363.75 171.75,363.39 C173.31,362.91 173.30,362.98 171.68,364.02 C170.67,364.66 169.60,364.93 169.29,364.62 C168.57,363.90 163.00,367.84 163.00,369.07 C163.00,370.63 165.59,370.11 168.23,368.03 ZM 493.42 349.39 C494.29,349.06 495.00,348.33 495.00,347.77 C495.00,347.21 494.24,347.37 493.31,348.13 C491.83,349.33 491.71,349.28 492.30,347.70 C492.73,346.57 492.59,346.14 491.94,346.54 C491.36,346.89 490.08,346.24 489.08,345.09 C487.99,343.83 486.06,343.00 484.26,343.00 C482.60,343.00 480.69,342.33 480.01,341.51 C478.74,339.99 477.00,340.33 477.00,342.11 C477.00,342.21 477.04,342.33 477.11,342.44 C476.77,342.21 476.44,341.96 476.14,341.72 C472.86,339.08 471.92,337.52 470.96,333.10 C469.58,326.71 470.27,321.25 473.01,316.76 C474.10,314.97 474.99,312.76 475.00,311.86 C475.00,308.26 487.62,298.00 492.03,298.00 C493.12,298.00 494.00,297.62 494.00,297.17 C494.00,296.23 497.87,295.84 506.00,295.94 C515.17,296.07 517.00,296.25 517.00,297.06 C517.00,297.84 522.70,299.44 523.26,298.83 C523.42,298.65 524.21,299.06 525.02,299.75 C525.84,300.44 529.18,302.76 532.46,304.91 L 538.42 308.81 L 540.71 305.71 C542.87,302.78 543.39,301.49 543.12,299.75 C543.05,299.34 543.53,299.00 544.17,299.00 C544.81,299.00 545.04,298.70 544.68,298.34 C544.31,297.98 544.52,297.08 545.13,296.34 C545.74,295.60 545.91,295.00 545.50,295.00 C545.09,295.00 545.27,294.38 545.90,293.62 C547.45,291.76 548.11,285.62 548.16,272.72 C548.18,266.35 547.75,261.40 547.11,260.63 C546.51,259.91 546.30,259.03 546.65,258.68 C547.00,258.33 546.79,257.46 546.19,256.73 C545.59,256.01 544.83,253.87 544.50,251.98 C544.16,250.08 543.24,247.82 542.44,246.94 C541.65,246.06 541.30,245.04 541.66,244.67 C542.03,244.30 541.78,244.00 541.11,244.00 C540.43,244.00 540.16,243.55 540.50,243.00 C540.84,242.45 540.71,242.00 540.22,242.00 C539.73,242.00 538.83,240.92 538.23,239.60 C536.55,235.92 528.08,225.11 526.00,224.00 C524.99,223.46 523.56,222.42 522.83,221.69 C520.08,218.96 507.26,212.05 501.00,209.93 C493.39,207.35 476.60,206.18 470.66,207.82 C465.43,209.27 462.00,207.91 462.00,204.39 C462.00,202.93 461.58,200.10 461.07,198.12 C460.56,196.13 459.57,191.80 458.88,188.50 C457.23,180.63 457.49,181.42 452.87,170.50 C450.44,164.77 443.16,152.15 441.02,149.97 C432.64,141.40 427.99,136.02 429.75,136.92 C430.99,137.55 432.00,138.58 432.00,139.20 C432.00,139.82 432.28,140.05 432.62,139.71 C433.34,139.00 434.09,139.74 439.49,146.50 C441.69,149.25 444.23,152.18 445.14,153.00 C447.95,155.54 454.11,165.28 453.65,166.46 C453.42,167.07 454.74,168.89 456.59,170.51 C459.61,173.14 459.89,173.83 459.35,177.22 C458.73,181.12 459.09,181.48 463.25,181.05 C465.41,180.83 465.48,182.34 463.45,185.43 C461.95,187.72 461.97,189.94 463.54,194.85 C464.15,196.79 464.77,197.10 467.10,196.63 C470.21,196.01 471.31,196.88 470.04,198.94 C469.57,199.70 468.31,200.05 467.17,199.75 C465.00,199.19 463.71,200.92 464.88,202.81 C465.39,203.63 467.12,203.67 471.04,202.98 C482.20,201.00 487.35,200.63 486.60,201.84 C486.13,202.60 486.75,203.00 488.38,203.00 C489.76,203.00 491.16,203.45 491.50,204.00 C491.84,204.55 493.62,205.00 495.45,205.00 C498.16,205.00 498.90,204.54 499.40,202.53 C500.32,198.87 503.54,197.47 506.53,199.43 C507.85,200.29 509.82,201.00 510.91,201.00 C511.99,201.00 513.16,201.45 513.50,202.00 C514.50,203.62 524.92,203.22 526.64,201.50 C528.62,199.52 535.39,199.55 537.04,201.55 C539.08,204.01 542.45,202.96 542.82,199.75 C543.08,197.49 543.53,197.09 545.32,197.50 C546.52,197.77 550.34,198.64 553.81,199.42 C557.28,200.21 560.76,201.38 561.54,202.04 C563.38,203.56 567.77,202.48 569.88,199.98 C571.42,198.17 571.80,198.15 577.50,199.60 C584.29,201.32 584.62,201.37 587.84,201.16 C589.24,201.06 590.39,200.21 590.70,199.05 C591.11,197.45 591.79,197.20 594.35,197.69 C598.23,198.43 598.29,198.48 598.52,201.25 C598.68,203.16 599.22,203.46 602.04,203.22 C603.87,203.07 605.92,202.48 606.60,201.91 C607.46,201.20 608.46,201.27 609.87,202.15 C611.57,203.21 612.60,203.06 616.44,201.14 C619.04,199.84 621.03,198.14 621.07,197.18 C621.13,195.82 621.31,195.89 622.00,197.50 C622.69,199.11 622.90,198.72 623.08,195.50 L 623.30 191.50 L 624.70 200.50 L 624.97 196.00 C625.21,191.87 625.29,191.74 625.94,194.50 C626.38,196.38 626.91,191.92 627.35,182.50 C628.07,167.08 629.99,150.48 630.77,152.82 C631.16,153.98 630.31,244.67 628.37,409.50 C628.19,424.50 628.12,436.74 628.15,446.06 C628.09,435.40 628.14,420.93 628.30,403.00 C628.60,370.83 628.48,345.85 628.04,347.50 C627.60,349.15 627.14,354.55 627.02,359.50 C626.87,365.68 626.55,367.72 626.00,366.00 C625.31,363.85 625.19,364.09 625.10,367.64 C624.99,372.15 622.78,378.44 621.68,377.35 C621.31,376.97 621.00,377.24 621.00,377.94 C621.00,379.49 616.27,378.53 614.00,376.51 C613.17,375.78 611.40,375.03 610.06,374.84 C608.25,374.59 607.40,373.64 606.76,371.17 L 605.90 367.85 L 597.81 368.28 C593.35,368.52 588.45,368.24 586.90,367.65 C583.56,366.40 582.99,366.82 582.09,371.20 C581.53,373.94 580.92,374.55 578.46,374.78 C561.13,376.42 560.40,376.28 559.81,371.18 C559.52,368.67 559.14,368.48 554.00,368.25 C549.78,368.05 548.91,368.24 550.25,369.05 C552.29,370.27 552.55,373.32 550.75,374.74 C549.24,375.93 543.00,376.01 543.00,374.83 C543.00,374.38 543.72,374.00 544.61,374.00 C545.65,374.00 546.00,373.45 545.62,372.45 C545.29,371.59 545.42,371.14 545.90,371.44 C547.27,372.28 547.97,368.06 546.92,365.30 C546.40,363.93 545.12,362.58 544.06,362.31 C542.72,361.96 542.20,361.01 542.33,359.15 C542.42,357.69 542.92,356.20 543.44,355.83 C544.00,355.42 543.90,354.58 543.19,353.73 C542.55,352.95 542.23,352.02 542.50,351.65 C542.77,351.28 542.58,351.32 542.09,351.74 C541.53,352.22 540.64,354.27 539.84,356.63 C541.07,349.92 540.93,346.20 539.64,338.81 C538.09,329.93 535.86,325.00 533.39,325.00 C532.62,325.00 532.00,324.19 532.00,323.20 C532.00,320.64 525.68,314.83 522.70,314.65 C521.32,314.57 520.39,314.18 520.63,313.79 C520.87,313.40 519.37,312.22 517.29,311.18 C514.26,309.67 511.46,309.31 503.31,309.39 L 493.12 309.50 L 489.53 313.50 C486.30,317.11 485.97,317.99 486.22,322.50 C486.41,325.86 486.91,327.42 487.75,327.25 C488.44,327.11 488.89,327.50 488.75,328.10 C488.48,329.31 496.85,332.21 498.20,331.37 C499.40,330.63 508.74,333.88 510.51,335.66 C511.33,336.47 512.00,338.65 512.00,340.50 C512.00,342.35 512.67,344.53 513.50,345.36 C515.18,347.04 515.47,349.59 514.08,350.45 C513.62,350.73 512.85,352.80 512.27,355.20 C512.80,352.35 512.48,351.18 511.41,352.26 C511.08,352.59 510.67,354.45 510.49,356.40 C510.09,360.62 509.36,362.00 507.50,362.00 C505.78,362.00 504.67,363.66 505.50,365.00 C506.39,366.44 510.36,361.37 511.74,357.35 C511.00,359.77 509.75,362.16 508.53,363.38 C507.14,364.77 506.00,366.79 506.00,367.88 C506.00,367.91 506.00,367.94 505.99,367.98 C505.95,366.92 505.59,367.06 504.00,368.50 C502.90,369.50 502.00,370.92 502.00,371.65 C502.00,372.39 501.05,373.00 499.89,373.00 C498.08,373.00 497.89,372.62 498.53,370.25 C499.59,366.32 499.41,360.01 498.20,358.80 C497.49,358.09 496.55,358.35 495.21,359.63 C492.80,361.93 491.31,366.17 493.05,365.78 C495.15,365.29 495.18,367.75 493.09,369.70 C490.98,371.67 491.17,375.99 493.37,376.02 C493.99,376.02 493.85,376.44 493.05,376.95 C492.25,377.45 491.24,377.65 490.80,377.38 C490.36,377.10 490.00,377.30 490.00,377.80 C490.00,379.31 486.22,378.64 484.02,376.75 C482.90,375.79 481.53,375.00 480.99,375.00 C480.44,375.00 480.00,374.33 480.00,373.50 C480.00,372.67 479.55,372.00 479.00,372.00 C478.45,372.00 478.00,372.72 478.00,373.59 C478.00,374.47 477.07,375.43 475.92,375.73 C474.78,376.03 473.44,377.34 472.95,378.64 C472.25,380.47 471.31,380.99 468.77,380.97 C465.42,380.94 460.20,378.12 463.06,377.88 C463.85,377.82 463.15,377.42 461.50,377.00 L 458.50 376.24 L 461.32 376.12 C464.43,375.99 466.87,374.12 466.28,372.33 C466.07,371.70 466.34,370.91 466.88,370.57 C468.63,369.49 476.97,368.23 476.42,369.13 C476.12,369.61 476.81,370.00 477.94,370.00 C480.08,370.00 480.80,368.43 478.94,367.81 C477.29,367.26 478.95,364.15 481.30,363.41 C483.43,362.73 486.00,360.63 486.00,359.56 C486.00,359.35 485.64,359.40 485.07,359.62 C489.18,357.33 489.94,355.66 489.97,351.22 C489.98,350.08 489.97,349.21 489.87,348.55 C490.40,350.16 491.13,350.27 493.42,349.39 ZM 496.25 198.47 C495.29,198.85 491.33,199.33 487.45,199.54 C480.57,199.92 480.40,199.87 480.40,197.54 C480.40,195.25 480.67,195.15 486.45,195.38 C489.78,195.51 493.74,195.29 495.25,194.88 C497.52,194.27 498.00,194.46 498.00,195.96 C498.00,196.97 497.21,198.09 496.25,198.47 ZM 200.60 374.89 C199.04,373.38 198.93,372.79 199.98,371.53 C201.44,369.76 205.00,369.47 205.00,371.11 C205.00,372.19 206.69,372.06 213.29,370.44 C215.36,369.93 216.01,370.10 215.79,371.10 C215.26,373.57 213.18,375.00 210.14,375.00 C208.48,375.00 206.09,375.39 204.82,375.86 C203.09,376.50 202.02,376.25 200.60,374.89 ZM 185.25 377.34 C184.56,377.06 184.00,375.49 184.00,373.86 C184.00,371.03 184.19,370.89 187.75,371.19 C190.83,371.44 191.56,371.92 191.84,373.89 C192.31,377.24 189.13,378.90 185.25,377.34 ZM 426.25 378.26 C421.71,378.07 418.00,377.60 418.00,377.21 C418.00,376.82 420.47,376.65 423.49,376.84 C427.55,377.09 429.13,376.81 429.53,375.77 C430.38,373.57 436.00,374.74 436.00,377.11 C436.00,378.15 435.66,378.91 435.25,378.80 C434.84,378.68 430.79,378.44 426.25,378.26 ZM 123.47 349.75 C123.10,347.96 122.50,346.18 122.14,345.79 C120.98,344.53 119.27,346.42 118.55,349.75 C117.87,352.88 117.96,353.00 121.00,353.00 C124.04,353.00 124.13,352.88 123.47,349.75 ZM 538.00 370.96 C538.00,368.77 540.74,364.00 542.00,364.00 C543.33,364.00 543.78,367.63 542.70,369.61 C540.69,373.30 538.00,374.07 538.00,370.96 ZM 113.43 352.12 C113.73,351.63 112.61,350.67 110.94,349.98 C108.56,348.99 107.35,348.98 105.26,349.93 C103.13,350.90 102.89,351.32 104.05,352.05 C105.91,353.23 112.71,353.27 113.43,352.12 ZM 263.41 179.72 C262.83,180.63 261.94,181.47 261.43,181.57 C259.97,181.86 257.00,180.93 257.02,180.18 C257.04,179.13 258.97,176.38 258.98,177.37 C258.99,177.85 259.69,177.67 260.54,176.96 C262.70,175.17 264.92,177.31 263.41,179.72 ZM 345.00 375.00 C345.73,373.63 347.08,373.00 349.29,373.02 C351.73,373.03 352.14,373.26 351.00,374.00 C350.00,374.65 349.92,374.97 350.75,374.98 C351.44,374.99 352.00,375.45 352.00,376.00 C352.00,376.55 350.18,377.00 347.96,377.00 C344.24,377.00 344.01,376.85 345.00,375.00 ZM 247.01 405.56 C253.46,406.51 279.01,406.75 367.92,406.81 C448.92,406.87 484.92,406.57 486.33,405.82 C484.94,406.57 449.01,406.90 368.54,406.90 C273.36,406.91 253.27,406.71 247.01,405.56 ZM 401.50 376.00 C400.42,374.25 402.02,373.00 405.31,373.02 C407.74,373.03 408.14,373.26 407.00,374.00 C405.75,374.81 405.84,374.98 407.50,375.05 L 409.50 375.14 L 407.50 376.00 C404.73,377.19 402.23,377.19 401.50,376.00 ZM 102.22 350.44 C103.21,349.46 101.82,346.00 100.44,346.00 C98.69,346.00 97.68,347.74 98.38,349.55 C98.93,350.99 101.16,351.51 102.22,350.44 ZM 442.34 377.56 C442.64,376.78 442.35,375.91 441.69,375.64 C441.04,375.38 441.69,375.12 443.14,375.08 C445.63,375.00 447.58,377.08 446.26,378.40 C444.99,379.68 441.79,379.00 442.34,377.56 ZM 199.39 350.93 C202.15,350.87 202.27,350.75 200.47,349.88 C199.06,349.19 196.65,349.35 192.47,350.42 L 186.50 351.95 L 191.39 351.47 C194.08,351.21 197.68,350.97 199.39,350.93 ZM 543.00 346.06 C543.00,344.44 542.52,342.82 541.93,342.46 C540.39,341.51 540.18,342.10 540.73,345.75 C541.35,349.80 543.00,350.03 543.00,346.06 ZM 220.19 376.49 C221.76,374.70 222.59,374.33 223.13,375.21 C224.12,376.81 222.25,379.00 219.88,379.00 C218.14,379.00 218.16,378.83 220.19,376.49 ZM 515.27 211.98 C516.49,212.47 517.63,212.90 517.79,212.94 C518.39,213.07 515.94,209.08 515.10,208.56 C514.61,208.26 513.94,208.70 513.62,209.54 C513.24,210.53 513.82,211.40 515.27,211.98 ZM 373.50 114.00 C375.13,114.70 374.86,114.87 372.00,114.91 C370.08,114.94 367.83,114.53 367.00,114.00 C365.85,113.26 366.21,113.04 368.50,113.09 C370.15,113.12 372.40,113.53 373.50,114.00 ZM 146.00 377.50 C146.00,376.67 146.89,376.00 148.00,376.00 C149.11,376.00 150.00,376.67 150.00,377.50 C150.00,378.33 149.11,379.00 148.00,379.00 C146.89,379.00 146.00,378.33 146.00,377.50 ZM 206.12 199.77 C205.27,201.37 205.45,201.63 207.31,201.50 C208.51,201.41 209.50,200.73 209.50,200.00 C209.50,197.86 207.23,197.71 206.12,199.77 ZM 222.80 369.51 C212.97,369.20 205.81,368.73 198.50,368.03 C193.55,367.56 188.94,367.13 188.25,367.09 C187.70,367.05 186.70,366.48 185.80,365.74 C188.53,367.18 194.98,367.93 208.50,368.54 C214.60,368.82 220.12,369.20 222.80,369.51 ZM 589.50 192.00 C589.16,192.55 588.49,193.00 588.00,193.00 C587.51,193.00 586.84,192.55 586.50,192.00 C586.16,191.45 586.84,191.00 588.00,191.00 C589.16,191.00 589.84,191.45 589.50,192.00 ZM 538.00 364.34 L 538.00 364.38 C538.00,366.48 533.96,375.17 531.48,379.08 C533.43,375.87 536.37,369.28 538.00,364.34 ZM 482.74 360.83 C481.75,361.43 480.67,362.17 479.75,362.90 C478.79,363.68 478.00,363.95 478.00,363.50 C478.00,363.45 477.99,363.41 477.97,363.38 C479.27,362.62 480.92,361.72 482.50,360.95 C482.58,360.91 482.66,360.87 482.74,360.83 ZM 462.08 195.42 C462.04,196.47 462.27,197.06 462.60,196.73 C462.94,196.40 462.97,195.53 462.68,194.81 C462.36,194.01 462.13,194.25 462.08,195.42 ZM 169.07 357.95 C169.45,358.89 171.24,360.03 173.63,361.00 C173.61,361.00 173.59,361.00 173.57,361.00 C172.92,361.00 171.51,360.35 170.44,359.56 C169.59,358.93 169.15,358.48 169.07,357.95 ZM 489.56 347.54 C489.11,346.74 488.20,346.37 486.37,346.00 C486.43,346.00 486.50,346.00 486.56,346.00 C488.13,346.00 489.10,346.50 489.56,347.54 ZM 500.86 374.31 C498.04,376.87 494.76,379.22 493.00,379.60 C494.62,379.25 497.97,376.86 500.86,374.31 ZM 468.02 367.52 C465.05,368.27 461.86,368.82 459.50,368.90 C461.69,368.82 464.96,368.26 468.02,367.52 ZM 221.96 404.49 C219.50,404.40 218.58,404.06 218.33,403.42 C218.58,404.05 219.51,404.38 221.96,404.49 Z" fill="rgb(56,151,203)"/>
<path d="M 388.41 495.25 C387.45,494.29 384.83,492.83 382.58,492.00 C378.97,490.67 378.07,489.64 374.75,483.00 C372.70,478.88 371.01,474.54 371.00,473.36 C371.00,470.29 374.01,467.10 377.58,466.41 C380.09,465.93 380.94,466.26 382.23,468.23 C383.10,469.56 383.97,471.74 384.16,473.07 C384.43,474.97 385.03,475.44 386.92,475.23 C388.32,475.08 390.31,475.88 391.66,477.15 C393.70,479.07 394.29,479.18 396.38,478.07 C397.71,477.35 399.72,477.09 400.95,477.48 C402.48,477.97 404.24,477.41 406.83,475.61 C410.83,472.85 418.00,464.78 418.00,463.06 C418.00,462.48 418.45,462.00 419.00,462.00 C419.42,462.00 419.78,461.34 419.93,460.42 C419.82,463.37 419.36,466.29 418.55,468.23 C416.82,472.37 411.36,477.39 406.21,479.58 C397.96,483.09 386.54,479.24 381.50,471.25 C379.32,467.80 376.95,467.15 375.01,469.49 C372.01,473.10 378.17,486.11 384.81,490.17 C386.84,491.41 389.15,493.06 389.94,493.83 C391.06,494.93 393.97,495.14 403.26,494.81 C409.80,494.58 415.45,493.94 415.82,493.39 C416.19,492.85 418.52,491.23 421.00,489.80 C428.23,485.62 434.60,477.50 436.92,469.50 C437.24,468.40 437.48,463.23 437.46,458.00 L 437.41 448.50 L 432.99 441.90 C430.56,438.27 427.21,434.46 425.54,433.44 C423.87,432.42 420.80,430.57 418.71,429.33 C411.24,424.88 405.79,424.48 354.50,424.72 C303.76,424.96 293.64,425.40 294.27,427.34 C294.82,429.04 303.01,433.15 306.50,433.48 C316.39,434.41 322.69,435.23 324.00,435.75 C327.12,436.98 342.87,437.73 369.50,437.91 C381.60,437.99 394.42,438.54 398.00,439.13 C401.58,439.72 405.40,440.33 406.50,440.48 C407.60,440.62 408.78,440.80 409.13,440.87 C410.65,441.18 417.66,448.76 418.77,451.30 C419.53,453.02 419.92,455.79 419.95,458.70 C419.83,457.71 419.48,457.00 419.08,457.00 C418.57,457.00 417.61,455.31 416.95,453.25 C415.40,448.46 414.37,447.19 411.68,446.81 C410.48,446.64 409.50,445.87 409.50,445.11 C409.50,444.34 408.60,443.22 407.50,442.61 C406.40,442.00 405.19,441.06 404.81,440.53 C404.42,440.00 401.50,439.70 398.31,439.87 C388.72,440.39 385.95,440.30 375.50,439.15 C369.53,438.49 358.83,438.30 348.95,438.67 C336.34,439.14 331.47,438.97 328.45,437.94 C326.28,437.20 324.07,436.71 323.54,436.87 C321.83,437.36 305.93,434.70 305.40,433.83 C305.11,433.37 302.72,433.00 300.09,433.00 C296.37,433.00 294.69,432.44 292.62,430.53 C291.15,429.16 290.02,427.70 290.10,427.28 C290.49,425.22 296.11,424.32 305.68,424.79 C314.51,425.21 316.10,425.04 317.63,423.51 C319.20,421.94 320.69,421.81 330.45,422.37 C357.23,423.90 386.00,424.30 386.00,423.15 C386.00,422.37 388.87,422.00 394.95,422.00 C403.25,422.00 409.00,423.26 409.00,425.08 C409.00,426.12 414.81,427.36 418.64,427.14 C420.80,427.01 422.85,427.83 425.14,429.73 C431.70,435.14 435.94,440.47 436.53,444.00 C436.85,445.92 437.53,448.28 438.05,449.24 C438.57,450.19 439.00,453.59 439.00,456.79 C439.00,459.98 439.51,463.11 440.13,463.73 C440.96,464.56 440.70,465.99 439.13,469.24 C437.96,471.66 436.99,474.73 436.97,476.07 C436.96,477.74 435.20,480.06 431.35,483.50 C428.28,486.25 424.40,489.74 422.73,491.25 C421.07,492.76 418.92,494.00 417.97,494.00 C417.01,494.00 414.94,494.67 413.36,495.49 C408.98,497.78 390.74,497.60 388.41,495.25 ZM 219.97 563.52 C198.08,563.40 183.70,563.22 181.50,562.97 C166.75,561.28 150.32,555.97 140.71,549.79 C137.85,547.94 134.15,545.78 132.50,544.98 C128.78,543.19 109.00,523.30 109.00,521.36 C109.00,520.58 108.33,519.68 107.51,519.36 C106.68,519.05 106.26,518.39 106.56,517.90 C106.87,517.40 106.64,517.00 106.06,517.00 C105.48,517.00 105.00,516.51 105.00,515.91 C105.00,515.31 104.11,513.68 103.01,512.29 C101.92,510.90 101.27,509.37 101.57,508.88 C101.87,508.40 101.69,508.00 101.16,508.00 C100.17,508.00 98.22,503.40 97.36,499.02 C97.10,497.66 96.40,496.25 95.81,495.88 C95.22,495.52 95.03,494.75 95.39,494.18 C95.74,493.61 95.57,492.85 95.00,492.50 C94.43,492.15 94.21,491.47 94.50,491.00 C94.79,490.53 94.57,489.85 94.00,489.50 C93.43,489.15 93.23,488.44 93.54,487.93 C93.86,487.42 93.77,486.44 93.34,485.75 C92.91,485.06 92.53,484.05 92.50,483.50 C92.46,482.95 92.06,480.48 91.59,478.02 C91.13,475.55 90.63,471.28 90.49,468.52 C89.72,453.47 88.85,164.21 89.55,157.49 L 90.38 149.50 L 90.62 151.72 C89.90,149.63 89.63,164.85 90.17,195.00 C91.20,252.43 91.85,420.06 91.22,448.96 C91.17,450.50 91.12,451.70 91.07,452.50 C90.45,462.68 90.60,465.26 92.08,469.50 C93.05,472.25 93.84,476.67 93.84,479.33 C93.83,482.21 94.44,484.83 95.33,485.83 C96.15,486.75 96.95,489.52 97.10,492.00 C97.26,494.72 98.08,497.20 99.17,498.28 C100.16,499.26 101.27,501.28 101.62,502.78 C101.98,504.27 102.83,506.17 103.52,507.00 C104.21,507.83 105.90,510.98 107.29,514.00 C108.67,517.03 110.75,520.07 111.90,520.76 C113.06,521.45 114.00,522.62 114.00,523.35 C114.00,524.09 114.90,525.50 116.00,526.50 C117.10,527.50 118.00,528.83 118.00,529.46 C118.00,531.95 124.53,536.80 128.82,537.50 C131.20,537.88 133.30,538.72 133.49,539.35 C133.68,539.98 134.11,541.75 134.44,543.28 C135.22,546.81 140.56,550.31 143.11,548.94 C145.77,547.52 149.00,547.81 149.00,549.48 C149.00,551.70 156.88,555.21 161.60,555.10 C164.88,555.02 166.33,555.60 168.88,558.04 C170.63,559.71 172.51,560.80 173.06,560.47 C173.60,560.13 178.09,560.17 183.02,560.56 C189.62,561.07 192.00,561.62 192.00,562.63 C192.00,562.99 202.57,563.29 219.97,563.52 ZM 528.30 562.65 C528.64,561.77 532.07,560.92 538.16,560.21 C543.52,559.59 549.28,558.25 551.68,557.07 C554.88,555.50 556.93,555.17 560.41,555.64 C566.21,556.44 570.46,554.71 572.04,550.91 C572.90,548.82 573.93,548.00 575.69,548.00 C578.82,548.00 580.69,546.97 585.44,542.62 C587.56,540.68 590.92,538.37 592.90,537.49 C599.57,534.54 601.34,533.23 601.68,531.00 C601.87,529.77 603.14,527.89 604.51,526.81 C605.88,525.74 607.00,524.26 607.00,523.53 C607.00,522.81 607.61,521.98 608.36,521.69 C610.08,521.03 615.70,511.28 618.84,503.50 C620.17,500.20 621.65,497.07 622.13,496.55 C622.61,496.03 623.00,494.75 623.00,493.70 C623.00,491.59 625.93,484.83 627.23,483.92 C628.89,482.77 629.82,472.57 628.79,467.00 C628.44,465.12 628.22,457.97 628.15,446.06 L 628.15 446.06 C628.12,436.74 628.19,424.49 628.37,409.50 C629.48,315.39 630.23,245.45 630.60,202.54 C630.67,226.21 630.66,261.10 630.61,311.50 C630.47,458.08 630.31,472.31 628.73,481.21 C627.04,490.73 622.36,505.27 619.65,509.41 C618.90,510.56 618.19,511.95 618.07,512.50 C617.89,513.34 615.13,517.28 611.76,521.50 C611.32,522.05 609.96,524.05 608.73,525.94 C607.50,527.83 602.17,533.26 596.88,538.01 C587.33,546.58 579.66,551.22 569.50,554.56 C566.75,555.47 563.83,556.80 563.00,557.52 C562.17,558.24 558.58,559.37 555.00,560.03 C551.42,560.69 547.38,561.74 546.00,562.36 C545.59,562.55 538.60,562.72 526.82,562.87 C527.77,562.80 528.27,562.73 528.30,562.65 ZM 222.80 369.51 C220.12,369.20 214.60,368.82 208.50,368.54 C194.98,367.93 188.53,367.18 185.80,365.74 C185.58,365.56 185.36,365.36 185.16,365.16 C184.94,364.94 184.66,364.73 184.34,364.51 C183.59,363.80 181.72,363.05 179.94,362.76 C177.94,362.44 175.91,361.88 174.16,361.21 C173.98,361.09 173.80,361.02 173.63,361.00 C171.24,360.03 169.45,358.89 169.07,357.95 C169.06,357.87 169.06,357.79 169.06,357.71 C169.48,358.91 171.33,360.25 174.68,361.30 C178.81,362.60 193.47,365.39 207.50,367.56 C214.23,368.60 457.57,367.96 464.34,366.88 C475.15,365.17 484.30,359.12 488.34,351.02 C489.19,349.31 489.58,348.14 489.43,347.35 C489.48,347.41 489.52,347.48 489.56,347.54 C489.62,347.69 489.67,347.84 489.71,348.00 C489.76,348.20 489.81,348.38 489.87,348.55 C489.97,349.21 489.98,350.08 489.97,351.22 C489.94,355.66 489.18,357.33 485.07,359.62 C484.47,359.86 483.64,360.29 482.74,360.83 C482.66,360.87 482.58,360.91 482.50,360.95 C480.92,361.72 479.27,362.62 477.97,363.38 C477.80,363.16 477.02,363.57 476.10,364.41 C475.01,365.39 471.68,366.60 468.02,367.52 C464.96,368.26 461.69,368.82 459.50,368.90 C450.63,369.19 342.54,369.90 291.50,370.00 C257.13,370.06 237.13,369.96 222.80,369.51 ZM 538.00 364.34 C536.37,369.28 533.43,375.87 531.48,379.08 C530.73,380.26 530.13,381.00 529.82,381.00 C529.30,381.00 529.13,381.40 529.44,381.90 C530.18,383.09 515.19,396.51 512.00,397.51 C509.00,398.45 502.43,402.50 501.52,403.97 C501.16,404.55 498.06,404.96 494.60,404.89 C492.24,404.83 489.75,405.02 488.06,405.33 C489.32,404.82 490.68,404.27 491.50,403.95 C492.60,403.50 495.30,402.60 497.50,401.95 C504.72,399.80 515.25,393.66 521.25,388.11 C528.53,381.37 532.25,376.04 536.19,366.72 C538.82,360.49 539.24,358.25 539.27,350.38 C539.33,338.03 536.53,330.03 529.41,322.16 C522.14,314.13 514.94,310.68 504.50,310.22 C496.78,309.88 496.37,309.98 492.78,312.98 C486.65,318.12 485.70,327.35 491.21,328.36 C492.47,328.60 496.06,329.25 499.18,329.83 C502.36,330.41 505.89,331.80 507.18,332.98 C507.81,333.56 508.40,334.09 508.94,334.60 C505.67,332.85 499.19,330.77 498.20,331.37 C496.85,332.21 488.48,329.31 488.75,328.10 C488.89,327.50 488.44,327.11 487.75,327.25 C486.91,327.42 486.41,325.86 486.22,322.50 C485.97,317.99 486.30,317.11 489.53,313.50 L 493.12 309.50 L 503.31 309.39 C511.46,309.31 514.26,309.67 517.29,311.18 C519.37,312.22 520.87,313.40 520.63,313.79 C520.39,314.18 521.32,314.57 522.70,314.65 C525.68,314.83 532.00,320.64 532.00,323.20 C532.00,324.19 532.62,325.00 533.39,325.00 C535.86,325.00 538.09,329.93 539.64,338.81 C540.93,346.20 541.07,349.92 539.84,356.63 C538.87,359.48 538.01,362.79 538.00,364.34 ZM 512.06 356.25 C512.14,355.88 512.21,355.53 512.27,355.20 C512.85,352.80 513.62,350.73 514.08,350.45 C514.45,350.22 514.70,349.88 514.84,349.46 C514.80,350.26 514.74,351.11 514.68,352.04 C513.61,368.10 499.40,382.36 481.00,385.85 C477.51,386.51 434.60,387.10 363.50,387.46 C252.58,388.02 238.86,388.40 221.62,391.44 C216.73,392.30 211.05,393.00 208.99,393.00 C207.16,393.00 205.28,393.49 204.36,394.17 C204.94,393.44 205.92,393.00 207.19,393.00 C208.27,393.00 209.82,392.33 210.64,391.50 C211.94,390.20 220.25,389.36 227.91,389.76 C228.68,389.80 229.98,389.16 230.80,388.34 C231.95,387.20 234.65,386.88 242.40,386.97 C247.95,387.04 256.89,386.79 262.25,386.41 C268.53,385.97 272.00,386.08 272.00,386.73 C272.00,387.90 469.21,387.23 470.00,386.05 C471.06,384.48 476.20,383.92 477.76,385.21 C479.00,386.23 479.41,386.24 479.75,385.25 C479.98,384.56 480.64,384.00 481.22,384.00 C481.81,384.00 484.13,383.13 486.39,382.07 C488.65,381.01 491.62,379.90 493.00,379.60 C494.62,379.25 497.97,376.86 500.86,374.31 C503.64,371.87 506.00,369.29 506.00,368.27 C506.00,368.16 506.00,368.07 505.99,367.98 C506.00,367.94 506.00,367.91 506.00,367.88 C506.00,366.79 507.14,364.77 508.53,363.38 C509.75,362.16 511.00,359.77 511.74,357.35 C511.87,356.97 511.98,356.60 512.06,356.25 ZM 317.00 321.41 C284.37,321.84 246.36,322.55 199.77,323.59 L 173.03 324.19 L 167.77 321.60 C157.95,316.77 155.32,314.67 152.99,309.78 C151.66,306.98 150.99,304.15 151.33,302.83 C151.66,301.60 151.51,298.76 151.00,296.52 C150.86,295.86 150.76,295.10 150.70,294.26 C150.85,295.61 151.12,297.02 151.53,298.77 C154.13,309.98 158.59,316.07 167.00,319.89 C171.28,321.84 221.17,322.34 317.00,321.41 ZM 171.06 355.28 C171.43,355.05 171.83,354.83 172.25,354.64 C175.97,352.98 195.87,351.07 207.10,351.29 C213.30,351.42 215.04,351.10 216.55,349.59 C218.27,347.88 219.47,347.80 232.45,348.56 C240.18,349.02 280.92,349.41 323.00,349.44 L 351.89 349.47 C338.62,349.61 323.66,349.77 308.00,349.92 C234.51,350.62 212.49,351.13 200.85,352.41 C192.80,353.29 185.48,353.74 184.59,353.40 C183.70,353.06 182.36,353.28 181.62,353.90 C180.87,354.52 178.16,354.95 175.60,354.85 C173.67,354.78 172.15,354.95 171.06,355.28 ZM 401.47 348.79 L 405.72 347.25 C409.14,346.01 412.64,345.00 413.50,345.00 C414.36,345.00 417.29,343.88 420.00,342.50 C422.71,341.12 425.81,340.00 426.89,340.00 C427.97,340.00 430.17,338.89 431.78,337.53 C433.40,336.17 434.96,335.30 435.26,335.59 C435.56,335.89 436.14,335.58 436.55,334.91 C437.06,334.10 436.89,333.95 436.06,334.46 C435.19,335.00 434.93,334.66 435.19,333.37 C435.41,332.31 436.35,331.56 437.35,331.65 C438.33,331.73 438.93,331.59 438.67,331.34 C438.42,331.09 439.18,329.83 440.36,328.55 C441.54,327.27 443.31,325.16 444.31,323.86 C445.31,322.56 445.84,322.06 445.50,322.75 C444.35,325.06 445.85,324.03 447.99,321.02 C449.15,319.38 450.28,317.17 450.48,316.09 C451.07,313.04 454.11,308.95 455.26,309.66 C455.39,309.74 455.49,309.79 455.57,309.82 C454.56,312.55 453.32,315.23 451.85,317.84 C448.98,322.92 434.62,338.16 433.11,337.73 C432.77,337.63 429.52,339.24 425.87,341.30 C418.57,345.42 410.64,348.16 404.50,348.69 C404.21,348.72 403.17,348.75 401.47,348.79 ZM 242.43 404.74 C238.82,404.27 234.57,404.16 229.39,404.37 C226.02,404.50 223.64,404.55 221.96,404.49 C219.51,404.38 218.58,404.05 218.33,403.42 L 218.33 403.42 C217.74,401.87 211.96,400.01 207.72,400.01 C205.75,400.00 204.68,399.34 204.08,397.75 C203.86,397.17 203.75,396.62 203.75,396.11 C204.14,396.51 204.96,396.92 206.35,397.50 C208.32,398.32 210.85,399.00 211.97,399.00 C213.09,399.00 214.00,399.50 214.00,400.11 C214.00,400.78 214.95,400.98 216.44,400.60 C217.78,400.27 219.11,400.38 219.40,400.85 C219.69,401.31 223.12,401.76 227.03,401.83 C230.93,401.90 234.66,402.30 235.31,402.72 C235.88,403.09 238.93,403.94 242.43,404.74 ZM 438.21 291.50 C438.15,296.50 437.75,301.00 437.01,301.00 C436.65,301.00 436.54,302.34 436.78,303.99 C437.14,306.44 436.58,307.54 433.65,310.14 C431.68,311.88 430.35,313.76 430.69,314.31 C431.03,314.86 430.83,315.01 430.24,314.65 C429.64,314.28 428.51,314.64 427.70,315.44 C426.90,316.24 424.69,317.77 422.80,318.83 C419.53,320.67 416.80,320.78 370.92,320.95 C363.80,320.97 356.45,321.01 348.81,321.08 C411.50,320.37 414.97,320.16 419.33,318.36 C421.99,317.26 425.72,315.13 427.61,313.62 C431.04,310.88 436.62,303.18 436.21,301.75 C436.10,301.34 436.38,301.00 436.84,301.00 C437.64,301.00 438.11,296.50 438.21,291.50 ZM 367.64 289.12 C368.49,289.48 369.53,289.61 370.25,289.39 C371.22,289.10 373.24,288.73 374.75,288.56 C376.91,288.33 377.43,287.81 377.19,286.15 C376.72,282.96 380.99,272.14 382.96,271.51 C383.91,271.21 385.28,269.84 386.02,268.46 C386.76,267.08 389.87,264.57 392.93,262.87 C393.25,262.70 393.56,262.53 393.85,262.37 C395.73,261.36 397.11,260.74 398.73,260.36 C400.86,259.85 403.41,259.77 408.11,259.74 C403.41,259.77 400.86,259.86 398.73,260.36 C397.11,260.74 395.74,261.36 393.85,262.37 C393.58,262.52 393.29,262.67 393.00,262.84 C386.65,266.35 382.06,273.01 379.89,281.85 C378.58,287.16 375.39,291.00 372.27,291.00 C371.47,291.00 369.50,290.23 367.91,289.29 C367.82,289.23 367.73,289.18 367.64,289.12 ZM 458.87 188.50 C458.23,185.43 457.88,183.67 457.41,182.03 C457.88,183.67 458.23,185.43 458.88,188.50 C459.57,191.80 460.56,196.13 461.07,198.12 C461.58,200.10 462.00,202.93 462.00,204.39 C462.00,207.91 465.43,209.27 470.66,207.82 C472.92,207.20 476.73,206.98 481.01,207.09 C476.27,207.06 471.87,207.48 468.78,208.38 C460.72,210.72 460.66,210.70 461.25,205.43 C461.54,202.92 461.40,199.43 460.95,197.68 C460.50,195.93 459.57,191.80 458.87,188.50 ZM 511.29 336.94 C514.40,340.28 515.07,342.59 514.90,347.93 C514.74,347.06 514.26,346.12 513.50,345.36 C512.67,344.53 512.00,342.35 512.00,340.50 C512.00,339.30 511.72,337.96 511.29,336.94 ZM 483.36 302.41 C479.05,305.64 475.00,309.82 475.00,311.86 C474.99,312.76 474.10,314.97 473.01,316.76 C470.27,321.25 469.58,326.71 470.96,333.10 C471.03,333.42 471.10,333.72 471.17,334.02 C470.21,330.87 469.86,327.28 470.39,324.13 C472.16,313.52 472.39,313.00 477.90,307.10 C479.37,305.53 481.34,303.87 483.36,302.41 ZM 455.73 309.39 C455.68,309.31 455.63,309.21 455.56,309.10 C454.62,307.58 455.76,302.73 456.89,303.43 C457.41,303.75 458.04,301.17 458.47,297.71 C458.02,301.65 457.10,305.56 455.73,309.39 ZM 247.01 405.56 C246.94,405.55 246.87,405.54 246.81,405.53 C255.33,406.53 277.61,406.70 367.82,406.78 C427.26,406.84 462.75,406.69 478.02,406.31 C463.14,406.70 427.84,406.85 367.92,406.81 C279.01,406.75 253.46,406.51 247.01,405.56 ZM 629.37 158.31 C628.91,161.77 628.43,166.51 628.03,171.68 C628.04,171.15 628.04,170.62 628.05,170.09 C628.07,167.11 628.66,161.88 629.37,158.31 ZM 443.68 254.50 C440.56,250.93 437.29,248.03 436.08,248.02 C437.63,248.04 440.50,250.62 443.68,254.50 ZM 155.20 271.76 C153.87,274.72 152.56,278.67 151.77,282.34 C152.57,278.32 153.74,274.48 155.07,272.00 C155.12,271.92 155.16,271.84 155.20,271.76 ZM 456.83 278.12 C455.64,274.45 453.99,270.59 451.98,266.80 C452.39,267.53 452.78,268.26 453.17,269.00 C454.70,271.95 455.92,275.01 456.83,278.12 ZM 363.99 282.82 C364.39,284.54 365.06,286.28 365.82,287.47 C364.87,286.27 364.26,284.72 363.99,282.82 ZM 481.41 344.88 C482.73,345.36 484.15,345.74 485.38,345.91 C484.08,345.79 482.76,345.45 481.41,344.88 ZM 364.45 274.50 C364.66,273.40 364.93,272.39 365.04,272.25 C364.93,272.39 364.68,273.40 364.48,274.50 C364.40,275.01 364.28,275.66 364.15,276.33 C364.23,275.74 364.34,275.13 364.45,274.50 ZM 94.35 196.56 C94.53,196.69 94.74,196.66 94.97,196.52 C95.43,196.24 96.34,198.25 97.00,201.00 C96.34,198.25 95.41,196.25 94.93,196.54 C94.71,196.68 94.52,196.69 94.35,196.56 ZM 626.52 193.67 C626.37,194.65 626.22,195.07 626.08,194.88 C626.21,194.95 626.36,194.51 626.52,193.67 Z" fill="rgb(58,130,180)"/>
<path d="M 629.37 158.31 C628.66,161.88 628.07,167.11 628.05,170.09 C628.04,170.62 628.04,171.15 628.03,171.68 C627.76,175.18 627.52,178.87 627.35,182.50 C627.09,188.02 626.80,191.83 626.52,193.67 C626.36,194.51 626.21,194.95 626.08,194.88 C626.03,194.82 625.99,194.69 625.94,194.50 C625.29,191.74 625.21,191.87 624.97,196.00 L 624.70 200.50 L 623.30 191.50 L 623.08 195.50 C622.90,198.72 622.69,199.11 622.00,197.50 C621.31,195.89 621.13,195.82 621.07,197.18 C621.03,198.14 619.04,199.84 616.44,201.14 C612.60,203.06 611.57,203.21 609.87,202.15 C608.46,201.27 607.46,201.20 606.60,201.91 C605.92,202.48 603.87,203.07 602.04,203.22 C599.22,203.46 598.68,203.16 598.52,201.25 C598.29,198.48 598.23,198.43 594.35,197.69 C591.79,197.20 591.11,197.45 590.70,199.05 C590.39,200.21 589.24,201.06 587.84,201.16 C584.62,201.37 584.29,201.32 577.50,199.60 C571.80,198.15 571.42,198.17 569.88,199.98 C567.77,202.48 563.38,203.56 561.54,202.04 C560.76,201.38 557.28,200.21 553.81,199.42 C550.34,198.64 546.52,197.77 545.32,197.50 C543.53,197.09 543.08,197.49 542.82,199.75 C542.45,202.96 539.08,204.01 537.04,201.55 C535.39,199.55 528.62,199.52 526.64,201.50 C524.92,203.22 514.50,203.62 513.50,202.00 C513.16,201.45 511.99,201.00 510.91,201.00 C509.82,201.00 507.85,200.29 506.53,199.43 C503.54,197.47 500.32,198.87 499.40,202.53 C498.90,204.54 498.16,205.00 495.45,205.00 C493.62,205.00 491.84,204.55 491.50,204.00 C491.16,203.45 489.76,203.00 488.38,203.00 C486.75,203.00 486.13,202.60 486.60,201.84 C487.35,200.63 482.20,201.00 471.04,202.98 C467.12,203.67 465.39,203.63 464.88,202.81 C463.71,200.92 465.00,199.19 467.17,199.75 C468.31,200.05 469.57,199.70 470.04,198.94 C471.31,196.88 470.21,196.01 467.10,196.63 C464.77,197.10 464.15,196.79 463.54,194.85 C461.97,189.94 461.95,187.72 463.45,185.43 C465.48,182.34 465.41,180.83 463.25,181.05 C459.09,181.48 458.73,181.12 459.35,177.22 C459.89,173.83 459.61,173.14 456.59,170.51 C454.74,168.89 453.42,167.07 453.65,166.46 C454.11,165.28 447.95,155.54 445.14,153.00 C444.23,152.18 441.69,149.25 439.49,146.50 C434.09,139.74 433.34,139.00 432.62,139.71 C432.28,140.05 432.00,139.82 432.00,139.20 C432.00,138.58 430.99,137.55 429.75,136.92 C428.55,136.31 430.32,138.60 434.21,142.83 C433.48,142.07 432.78,141.39 432.13,140.81 C421.42,131.37 418.12,129.15 407.00,123.85 C381.35,111.63 348.85,112.14 324.39,125.15 C314.94,130.18 306.31,136.63 300.56,142.97 C298.32,145.42 295.29,148.57 293.80,149.97 C289.07,154.42 281.24,170.15 277.00,183.75 C278.76,178.11 281.50,170.90 283.10,167.72 C286.42,161.10 286.97,157.95 284.43,160.06 C282.49,161.67 279.70,167.05 276.84,174.69 C275.65,177.87 273.39,181.77 271.81,183.35 C269.52,185.63 269.17,186.51 270.11,187.63 C271.56,189.39 270.52,190.66 268.77,189.26 C268.07,188.69 265.10,187.95 262.16,187.60 C259.23,187.25 256.16,186.30 255.34,185.48 C254.52,184.67 253.55,183.97 253.18,183.92 C252.81,183.88 251.60,183.67 250.50,183.46 C248.11,183.01 242.18,182.68 239.80,182.86 C238.86,182.94 237.03,184.06 235.73,185.36 C233.43,187.66 227.00,189.48 227.00,187.83 C227.00,186.86 223.62,186.71 222.69,187.64 C222.34,187.99 222.36,188.77 222.73,189.37 C224.28,191.87 223.65,193.69 221.32,193.43 C219.86,193.27 219.24,193.58 219.66,194.26 C220.08,194.94 219.72,195.11 218.66,194.70 C217.75,194.35 217.00,194.45 217.00,194.92 C217.00,195.39 215.70,195.96 214.10,196.20 C212.01,196.51 211.35,196.26 211.71,195.31 C211.99,194.59 212.05,193.97 211.86,193.93 C211.66,193.89 207.76,193.63 203.20,193.35 C194.26,192.80 192.08,193.58 191.90,197.37 C191.81,199.28 191.72,199.25 191.00,197.00 L 190.20 194.50 L 190.10 197.25 C190.01,199.62 189.58,200.00 187.00,200.00 C184.36,200.00 184.00,199.65 184.00,197.12 C184.00,192.97 182.04,191.85 175.33,192.20 L 169.50 192.50 L 169.19 196.25 C168.92,199.49 169.23,200.14 171.44,200.98 C174.10,201.99 174.83,204.37 172.86,205.58 C172.24,205.97 170.99,205.32 170.09,204.12 C168.76,202.36 167.84,202.08 165.13,202.62 L 161.80 203.29 L 163.40 200.19 C164.28,198.49 165.00,195.47 165.00,193.49 C165.00,190.01 164.87,189.89 161.75,190.19 C158.97,190.45 158.53,190.86 158.70,193.00 C159.11,198.15 158.14,200.00 155.05,200.00 C153.45,200.00 151.47,200.68 150.64,201.50 C148.13,204.01 146.00,203.35 146.00,200.06 C146.00,196.52 144.50,195.34 142.30,197.16 C141.26,198.03 138.78,198.38 135.28,198.15 C129.15,197.76 126.00,199.63 126.00,203.65 C126.00,206.42 122.35,207.02 121.82,204.34 C121.55,202.94 120.02,202.66 112.09,202.59 C103.93,202.51 102.62,202.73 102.22,204.25 C101.97,205.21 100.96,206.00 99.98,206.00 C98.67,206.00 97.88,204.68 97.00,201.00 C96.34,198.25 95.43,196.24 94.97,196.52 C94.74,196.66 94.53,196.69 94.35,196.56 C93.49,195.88 93.08,191.54 92.54,179.50 C91.78,162.13 91.10,153.10 90.62,151.72 L 90.38 149.50 L 90.22 151.07 C90.24,150.24 90.27,149.71 90.29,149.50 C90.72,145.65 91.21,141.34 91.37,139.93 C91.53,138.52 91.95,136.89 92.30,136.32 C92.66,135.75 93.14,133.73 93.37,131.84 C94.03,126.51 96.21,120.00 97.32,120.00 C97.88,120.00 98.05,119.71 97.69,119.36 C97.34,119.01 97.67,117.55 98.42,116.11 C99.17,114.67 100.85,111.34 102.14,108.69 C103.44,106.05 105.18,103.13 106.00,102.19 C106.82,101.26 108.77,98.63 110.33,96.33 C113.00,92.39 122.23,83.23 128.59,78.20 C130.19,76.94 136.90,73.25 143.50,70.02 C156.65,63.57 166.78,60.70 182.21,59.04 C188.54,58.36 250.44,58.00 360.21,58.00 C517.76,58.00 547.65,58.43 551.36,60.72 C551.94,61.08 553.65,61.51 555.16,61.67 C559.17,62.11 569.59,65.83 576.48,69.27 C599.59,80.83 617.44,100.96 624.99,124.00 C625.89,126.74 626.64,128.73 627.27,130.77 C628.71,135.40 629.51,140.23 629.96,154.54 C629.77,155.50 629.57,156.78 629.37,158.31 ZM 496.25 198.47 C497.21,198.09 498.00,196.97 498.00,195.96 C498.00,194.46 497.52,194.27 495.25,194.88 C493.74,195.29 489.78,195.51 486.45,195.38 C480.67,195.15 480.40,195.25 480.40,197.54 C480.40,199.87 480.57,199.92 487.45,199.54 C491.33,199.33 495.29,198.85 496.25,198.47 ZM 263.41 179.72 C264.92,177.31 262.70,175.17 260.54,176.96 C259.69,177.67 258.99,177.85 258.98,177.37 C258.97,176.38 257.04,179.13 257.02,180.18 C257.00,180.93 259.97,181.86 261.43,181.57 C261.94,181.47 262.83,180.63 263.41,179.72 ZM 515.27 211.98 C513.82,211.40 513.24,210.53 513.62,209.54 C513.94,208.70 514.61,208.26 515.10,208.56 C515.94,209.08 518.39,213.07 517.79,212.94 C517.63,212.90 516.49,212.47 515.27,211.98 ZM 373.50 114.00 C372.40,113.53 370.15,113.12 368.50,113.09 C366.21,113.04 365.85,113.26 367.00,114.00 C367.83,114.53 370.08,114.94 372.00,114.91 C374.86,114.87 375.13,114.70 373.50,114.00 ZM 206.12 199.77 C207.23,197.71 209.50,197.86 209.50,200.00 C209.50,200.73 208.51,201.41 207.31,201.50 C205.45,201.63 205.27,201.37 206.12,199.77 ZM 435.54 144.26 C437.11,145.94 438.95,147.86 441.02,149.97 C442.74,151.73 447.80,160.25 450.97,166.50 C447.35,159.50 440.84,150.15 435.54,144.26 ZM 589.50 192.00 C589.84,191.45 589.16,191.00 588.00,191.00 C586.84,191.00 586.16,191.45 586.50,192.00 C586.84,192.55 587.51,193.00 588.00,193.00 C588.49,193.00 589.16,192.55 589.50,192.00 ZM 210.51 367.71 C208.89,367.67 207.86,367.62 207.50,367.56 C205.59,367.27 203.67,366.96 201.77,366.65 C203.55,366.88 204.98,367.01 205.85,367.02 C207.62,367.02 209.57,367.32 210.51,367.71 ZM 462.08 195.42 C462.13,194.25 462.36,194.01 462.68,194.81 C462.97,195.53 462.94,196.40 462.60,196.73 C462.27,197.06 462.04,196.47 462.08,195.42 ZM 628.74 481.21 C627.79,486.56 625.89,493.49 623.94,499.26 C625.89,493.48 627.78,486.56 628.73,481.21 C629.48,477.00 629.91,471.60 630.17,451.55 C629.93,471.74 629.50,476.99 628.74,481.21 ZM 177.82 362.12 C176.48,361.81 175.41,361.53 174.68,361.30 C171.33,360.25 169.48,358.91 169.06,357.71 L 169.06 357.70 C169.53,358.95 171.57,360.35 175.19,361.42 C175.95,361.64 176.83,361.88 177.82,362.12 ZM 451.79 168.15 C452.21,169.01 452.57,169.81 452.87,170.50 C455.18,175.96 456.27,178.49 456.99,180.65 C457.08,180.91 457.16,181.18 457.24,181.44 C457.30,181.63 457.36,181.83 457.41,182.03 C457.71,183.06 457.95,184.14 458.26,185.56 C457.17,180.48 456.75,179.63 452.40,169.50 C452.21,169.06 452.01,168.61 451.79,168.15 ZM 90.31 460.22 C90.37,464.28 90.42,467.06 90.48,468.33 L 90.47 468.21 C90.42,467.22 90.36,464.46 90.31,460.22 ZM 519.63 298.38 C518.24,297.97 517.00,297.43 517.00,297.06 C517.00,297.40 518.22,297.94 519.63,298.38 ZM 91.50 477.49 C91.53,477.67 91.56,477.85 91.59,478.02 C91.79,479.08 91.98,480.14 92.13,481.05 C91.99,480.19 91.81,479.20 91.62,478.21 C91.58,477.99 91.54,477.75 91.50,477.49 ZM 463.97 366.92 C464.13,366.91 464.25,366.89 464.34,366.88 C464.26,366.89 464.13,366.91 463.97,366.92 Z" fill="rgb(64,171,217)"/>
<path d="M 0.00 374.50 L 0.00 0.00 L 372.50 0.00 L 745.00 0.00 L 745.00 374.50 L 745.00 749.00 L 372.50 749.00 L 0.00 749.00 L 0.00 374.50 ZM 131.84 692.55 C144.65,688.52 151.20,674.33 146.46,660.89 C143.54,652.62 138.12,648.78 122.42,643.87 C109.74,639.91 106.18,636.10 109.11,629.66 C111.49,624.44 120.17,623.58 131.49,627.43 C135.34,628.74 138.87,629.58 139.34,629.29 C141.14,628.18 146.00,619.51 146.00,617.41 C146.00,615.15 141.67,612.55 134.00,610.21 C120.96,606.23 104.22,608.89 96.30,616.22 C93.75,618.58 90.56,625.08 89.67,629.75 C88.81,634.28 90.60,642.78 93.26,646.75 C96.43,651.46 102.89,655.47 112.35,658.59 C122.54,661.95 127.57,664.45 128.38,666.54 C129.78,670.18 128.99,673.87 126.37,675.93 C122.73,678.78 111.18,678.82 103.76,676.00 C95.09,672.71 93.81,673.08 90.55,679.89 C89.01,683.12 88.05,686.28 88.43,686.89 C89.57,688.73 94.69,691.00 102.32,693.07 C110.88,695.38 123.57,695.16 131.84,692.55 ZM 180.00 674.50 L 180.50 655.50 L 194.22 673.10 C201.76,682.78 208.69,691.33 209.62,692.10 C210.67,692.97 214.40,693.63 219.49,693.85 C226.17,694.13 227.98,693.88 229.37,692.49 C230.44,691.42 230.74,690.37 230.18,689.64 C229.68,689.01 222.47,679.88 214.14,669.35 C205.81,658.81 199.00,649.99 199.00,649.75 C199.00,649.51 202.64,644.63 207.08,638.91 C223.19,618.18 227.08,612.68 226.78,611.10 C226.54,609.83 224.91,609.44 218.93,609.21 C214.78,609.05 210.44,609.28 209.29,609.71 C208.15,610.15 201.20,618.57 193.85,628.43 L 180.50 646.35 L 180.00 627.93 L 179.50 609.50 L 172.16 609.20 C167.61,609.02 164.28,609.35 163.41,610.08 C161.46,611.69 161.30,690.90 163.24,692.84 C164.06,693.66 167.00,693.98 171.99,693.79 L 179.50 693.50 L 180.00 674.50 ZM 278.42 693.39 C279.76,692.88 280.00,690.53 280.00,677.68 L 280.00 662.57 L 287.65 648.54 C291.86,640.82 297.93,629.91 301.15,624.30 C304.37,618.69 307.00,612.96 307.00,611.55 C307.00,609.02 306.94,609.00 298.65,609.00 C291.94,609.00 290.02,609.34 288.81,610.75 C287.99,611.71 283.81,619.14 279.52,627.25 C275.24,635.36 271.44,642.00 271.09,642.00 C270.74,642.00 267.44,636.26 263.76,629.25 C252.00,606.86 254.46,609.54 245.38,609.21 C239.88,609.01 236.91,609.34 235.61,610.30 C233.52,611.82 231.74,608.15 253.38,646.95 L 262.00 662.40 L 262.00 677.62 C262.00,688.85 262.33,692.97 263.25,693.34 C265.06,694.07 276.55,694.11 278.42,693.39 ZM 350.83 693.13 C351.55,692.67 353.43,687.61 355.00,681.89 C356.57,676.18 359.69,664.82 361.93,656.66 C366.26,640.86 367.32,638.09 368.37,639.79 C369.06,640.91 371.34,648.70 377.94,672.50 C384.23,695.20 383.29,693.96 394.23,693.99 C400.90,694.00 401.68,693.19 404.33,683.50 C412.83,652.42 417.61,635.27 422.64,617.82 C425.02,609.54 424.56,609.00 415.15,609.00 C410.02,609.00 406.90,609.44 406.26,610.25 C405.26,611.51 401.86,624.74 395.95,650.26 C394.20,657.83 392.45,664.22 392.05,664.47 C391.66,664.71 389.64,659.19 387.56,652.20 C382.77,636.12 381.78,632.79 378.03,620.35 C376.18,614.20 374.36,609.97 373.41,609.60 C371.13,608.73 362.72,608.89 361.23,609.84 C360.53,610.28 359.49,612.18 358.92,614.07 C356.59,621.74 346.73,655.77 345.76,659.50 C345.19,661.70 344.43,663.83 344.08,664.23 C343.73,664.63 342.39,660.36 341.12,654.73 C335.41,629.58 330.83,611.70 329.72,610.25 C328.60,608.80 315.29,608.53 313.11,609.91 C311.49,610.94 311.61,611.56 318.62,636.50 C321.10,645.30 324.48,657.45 326.15,663.50 C332.24,685.62 334.18,691.53 335.76,692.75 C337.58,694.15 348.77,694.43 350.83,693.13 ZM 453.50 651.50 L 453.50 609.50 L 447.03 609.20 C443.47,609.03 439.54,609.15 438.28,609.47 L 436.00 610.04 L 436.00 650.82 C436.00,681.90 436.29,691.89 437.24,692.84 C438.06,693.66 441.00,693.98 445.99,693.79 L 453.50 693.50 L 453.50 651.50 ZM 487.80 692.80 C488.67,691.93 489.00,684.71 489.00,666.58 C489.00,637.27 487.75,638.07 501.56,658.50 C527.86,697.42 524.80,694.01 533.36,693.98 C536.74,693.98 540.07,693.61 540.76,693.17 C541.75,692.54 541.97,683.42 541.76,650.93 L 541.50 609.50 L 533.91 609.21 C528.41,609.00 526.00,609.30 525.17,610.29 C524.40,611.22 523.95,619.93 523.77,637.08 L 523.50 662.50 L 513.06 647.00 C507.31,638.47 499.73,627.22 496.21,622.00 C486.84,608.11 487.86,608.88 479.06,609.21 L 471.50 609.50 L 471.24 650.50 C471.00,688.16 471.11,691.60 472.68,692.75 C474.86,694.35 486.21,694.39 487.80,692.80 ZM 601.89 691.97 C623.75,686.80 635.51,668.03 632.23,643.55 C630.90,633.57 628.51,628.47 621.86,621.45 C612.52,611.57 600.48,608.59 572.50,609.21 L 559.50 609.50 L 559.24 650.38 C559.04,682.06 559.26,691.61 560.23,692.78 C561.31,694.08 564.09,694.20 579.50,693.65 C589.40,693.29 599.47,692.54 601.89,691.97 ZM 546.00 562.36 C547.38,561.74 551.42,560.69 555.00,560.03 C558.58,559.37 562.17,558.24 563.00,557.52 C563.83,556.80 566.75,555.47 569.50,554.56 C579.66,551.22 587.33,546.58 596.88,538.01 C602.17,533.26 607.50,527.83 608.73,525.94 C609.96,524.05 611.32,522.05 611.76,521.50 C615.13,517.28 617.89,513.34 618.07,512.50 C618.19,511.95 618.90,510.56 619.65,509.41 C622.35,505.29 627.04,490.74 628.74,481.21 C630.34,472.26 630.48,458.66 630.49,307.50 C630.50,127.61 630.94,142.13 624.99,124.00 C617.44,100.96 599.59,80.83 576.48,69.27 C569.59,65.83 559.17,62.11 555.16,61.67 C553.65,61.51 551.94,61.08 551.36,60.72 C547.65,58.43 517.76,58.00 360.21,58.00 C250.44,58.00 188.54,58.36 182.21,59.04 C166.78,60.70 156.65,63.57 143.50,70.02 C136.90,73.25 130.19,76.94 128.59,78.20 C122.23,83.23 113.00,92.39 110.33,96.33 C108.77,98.63 106.82,101.26 106.00,102.19 C105.18,103.13 103.44,106.05 102.14,108.69 C100.85,111.34 99.17,114.67 98.42,116.11 C97.67,117.55 97.34,119.01 97.69,119.36 C98.05,119.71 97.88,120.00 97.32,120.00 C96.21,120.00 94.03,126.51 93.37,131.84 C93.14,133.73 92.66,135.75 92.30,136.32 C91.95,136.89 91.53,138.52 91.37,139.93 C91.21,141.34 90.72,145.65 90.29,149.50 C89.56,156.01 89.73,455.58 90.47,468.21 C90.66,471.35 91.18,475.85 91.62,478.21 C92.07,480.57 92.46,482.95 92.50,483.50 C92.53,484.05 92.91,485.06 93.34,485.75 C93.77,486.44 93.86,487.42 93.54,487.93 C93.23,488.44 93.43,489.15 94.00,489.50 C94.57,489.85 94.79,490.53 94.50,491.00 C94.21,491.47 94.43,492.15 95.00,492.50 C95.57,492.85 95.74,493.61 95.39,494.18 C95.03,494.75 95.22,495.52 95.81,495.88 C96.40,496.25 97.10,497.66 97.36,499.02 C98.22,503.40 100.17,508.00 101.16,508.00 C101.69,508.00 101.87,508.40 101.57,508.88 C101.27,509.37 101.92,510.90 103.01,512.29 C104.11,513.68 105.00,515.31 105.00,515.91 C105.00,516.51 105.48,517.00 106.06,517.00 C106.64,517.00 106.87,517.40 106.56,517.90 C106.26,518.39 106.68,519.05 107.51,519.36 C108.33,519.68 109.00,520.58 109.00,521.36 C109.00,523.30 128.78,543.19 132.50,544.98 C134.15,545.78 137.85,547.94 140.71,549.79 C150.32,555.97 166.75,561.28 181.50,562.97 C193.07,564.29 543.04,563.71 546.00,562.36 ZM 577.67 676.33 C577.30,675.97 577.00,664.44 577.00,650.72 L 577.00 625.77 L 587.25 626.16 C600.71,626.66 606.21,629.14 610.23,636.50 C612.65,640.95 612.95,642.55 612.95,651.00 C612.96,665.64 608.90,672.17 597.77,675.48 C592.63,677.00 578.92,677.59 577.67,676.33 ZM 389.94 493.83 C389.15,493.06 386.84,491.41 384.81,490.17 C378.17,486.11 372.01,473.10 375.01,469.49 C376.95,467.15 379.32,467.80 381.50,471.25 C386.54,479.24 397.96,483.09 406.21,479.58 C411.36,477.39 416.82,472.37 418.55,468.23 C420.32,463.99 420.44,455.10 418.77,451.30 C417.66,448.76 410.65,441.18 409.13,440.87 C408.78,440.80 407.60,440.62 406.50,440.48 C405.40,440.33 401.58,439.72 398.00,439.13 C394.42,438.54 381.60,437.99 369.50,437.91 C342.87,437.73 327.12,436.98 324.00,435.75 C322.69,435.23 316.39,434.41 306.50,433.48 C303.01,433.15 294.82,429.04 294.27,427.34 C293.64,425.40 303.76,424.96 354.50,424.72 C405.79,424.48 411.24,424.88 418.71,429.33 C420.80,430.57 423.87,432.42 425.54,433.44 C427.21,434.46 430.56,438.27 432.99,441.90 L 437.41 448.50 L 437.46 458.00 C437.48,463.23 437.24,468.40 436.92,469.50 C434.60,477.50 428.23,485.62 421.00,489.80 C418.52,491.23 416.19,492.85 415.82,493.39 C415.45,493.94 409.80,494.58 403.26,494.81 C393.97,495.14 391.06,494.93 389.94,493.83 ZM 244.00 405.08 C239.88,404.20 235.97,403.14 235.31,402.72 C234.66,402.30 230.93,401.90 227.03,401.83 C223.12,401.76 219.69,401.31 219.40,400.85 C219.11,400.38 217.78,400.27 216.44,400.60 C214.95,400.98 214.00,400.78 214.00,400.11 C214.00,399.50 213.09,399.00 211.97,399.00 C210.85,399.00 208.32,398.32 206.35,397.50 C203.32,396.24 202.95,395.76 204.00,394.50 C204.70,393.66 206.88,393.00 208.99,393.00 C211.05,393.00 216.73,392.30 221.62,391.44 C238.86,388.40 252.58,388.02 363.50,387.46 C434.60,387.10 477.51,386.51 481.00,385.85 C499.40,382.36 513.61,368.10 514.68,352.04 C515.40,341.21 514.96,340.08 507.18,332.98 C505.89,331.80 502.36,330.41 499.18,329.83 C496.06,329.25 492.47,328.60 491.21,328.36 C485.70,327.35 486.65,318.12 492.78,312.98 C496.37,309.98 496.78,309.88 504.50,310.22 C514.94,310.68 522.14,314.13 529.41,322.16 C536.53,330.03 539.33,338.03 539.27,350.38 C539.24,358.25 538.82,360.49 536.19,366.72 C532.25,376.04 528.53,381.37 521.25,388.11 C515.25,393.66 504.72,399.80 497.50,401.95 C495.30,402.60 492.60,403.50 491.50,403.95 C490.40,404.39 488.29,405.23 486.82,405.82 C484.96,406.56 448.41,406.86 367.82,406.78 C265.57,406.68 250.59,406.48 244.00,405.08 ZM 210.83 367.87 C210.10,367.41 207.86,367.02 205.85,367.02 C201.37,367.00 182.40,363.53 175.19,361.42 C166.68,358.92 166.95,354.52 175.60,354.85 C178.16,354.95 180.87,354.52 181.62,353.90 C182.36,353.28 183.70,353.06 184.59,353.40 C185.48,353.74 192.80,353.29 200.85,352.41 C212.49,351.13 234.51,350.62 308.00,349.92 C358.88,349.43 402.30,348.88 404.50,348.69 C410.64,348.16 418.57,345.42 425.87,341.30 C429.52,339.24 432.77,337.63 433.11,337.73 C434.62,338.16 448.98,322.92 451.85,317.84 C460.63,302.28 461.12,284.27 453.17,269.00 C447.68,258.47 439.20,248.05 436.08,248.02 C435.30,248.01 433.90,247.32 432.98,246.48 C429.76,243.57 420.89,241.86 408.50,241.77 C399.10,241.70 395.85,242.04 393.50,243.34 C391.85,244.24 389.93,244.99 389.23,244.99 C385.16,245.01 370.00,258.38 370.00,261.96 C370.00,262.53 369.52,263.00 368.94,263.00 C368.36,263.00 368.16,263.45 368.50,264.00 C368.84,264.55 368.57,265.00 367.89,265.00 C367.22,265.00 366.95,265.28 367.30,265.63 C367.65,265.98 367.40,267.22 366.75,268.38 C366.10,269.55 365.50,270.84 365.41,271.25 C365.32,271.66 365.16,272.11 365.04,272.25 C364.93,272.39 364.66,273.40 364.45,274.50 C362.99,282.26 364.10,287.04 367.91,289.29 C369.50,290.23 371.47,291.00 372.27,291.00 C375.39,291.00 378.58,287.16 379.89,281.85 C382.06,273.01 386.65,266.35 393.00,262.84 C398.03,260.05 399.32,259.79 408.11,259.74 C417.19,259.70 418.06,259.88 423.61,263.01 C429.54,266.34 433.90,270.44 433.96,272.75 C433.98,273.44 434.48,274.00 435.06,274.00 C435.64,274.00 435.84,274.45 435.50,275.00 C435.16,275.55 435.39,276.00 436.00,276.00 C436.61,276.00 436.86,276.41 436.55,276.91 C436.24,277.42 436.42,277.98 436.95,278.16 C438.74,278.79 438.63,301.00 436.84,301.00 C436.38,301.00 436.10,301.34 436.21,301.75 C436.62,303.18 431.04,310.88 427.61,313.62 C425.72,315.13 421.99,317.26 419.33,318.36 C414.71,320.27 411.09,320.39 337.00,321.21 C228.11,322.40 171.57,321.97 167.00,319.89 C158.59,316.07 154.13,309.98 151.53,298.77 C150.30,293.48 150.28,291.25 151.36,284.50 C152.51,277.38 156.20,268.08 158.25,267.17 C158.66,266.98 159.00,266.23 159.00,265.49 C159.00,263.94 170.36,252.00 171.84,252.00 C172.39,252.00 172.98,251.60 173.17,251.12 C173.59,249.99 186.43,244.00 188.42,244.00 C190.41,244.00 191.59,241.56 192.44,235.73 C193.29,229.86 196.66,222.12 201.24,215.50 C206.08,208.52 209.49,205.12 217.03,199.77 C231.49,189.52 251.75,186.40 265.92,192.25 C269.45,193.71 272.67,194.70 273.07,194.46 C273.47,194.21 275.24,189.39 277.00,183.75 C281.24,170.15 289.07,154.42 293.80,149.97 C295.29,148.57 298.32,145.42 300.56,142.97 C306.31,136.63 314.94,130.18 324.39,125.15 C348.85,112.14 381.35,111.63 407.00,123.85 C418.12,129.15 421.42,131.37 432.13,140.81 C438.38,146.33 448.75,161.00 452.40,169.50 C457.48,181.31 457.20,180.51 458.87,188.50 C459.57,191.80 460.50,195.93 460.95,197.68 C461.40,199.43 461.54,202.92 461.25,205.43 C460.66,210.70 460.72,210.72 468.78,208.38 C476.43,206.15 492.08,206.91 501.00,209.93 C507.26,212.05 520.08,218.96 522.83,221.69 C523.56,222.42 524.99,223.46 526.00,224.00 C528.08,225.11 536.55,235.92 538.23,239.60 C538.83,240.92 539.73,242.00 540.22,242.00 C540.71,242.00 540.84,242.45 540.50,243.00 C540.16,243.55 540.43,244.00 541.11,244.00 C541.78,244.00 542.03,244.30 541.66,244.67 C541.30,245.04 541.65,246.06 542.44,246.94 C543.24,247.82 544.16,250.08 544.50,251.98 C544.83,253.87 545.59,256.01 546.19,256.73 C546.79,257.46 547.00,258.33 546.65,258.68 C546.30,259.03 546.51,259.91 547.11,260.63 C547.75,261.40 548.18,266.35 548.16,272.72 C548.11,285.62 547.45,291.76 545.90,293.62 C545.27,294.38 545.09,295.00 545.50,295.00 C545.91,295.00 545.74,295.60 545.13,296.34 C544.52,297.08 544.31,297.98 544.68,298.34 C545.04,298.70 544.81,299.00 544.17,299.00 C543.53,299.00 543.05,299.34 543.12,299.75 C543.39,301.49 542.87,302.78 540.71,305.71 L 538.42 308.81 L 532.46 304.91 C529.18,302.76 525.95,300.54 525.27,299.98 C524.59,299.42 523.80,299.00 523.50,299.05 C522.09,299.31 517.00,297.75 517.00,297.06 C517.00,296.25 515.17,296.07 506.00,295.94 C497.87,295.84 494.00,296.23 494.00,297.17 C494.00,297.62 493.12,298.00 492.03,298.00 C489.42,298.00 481.86,302.87 477.90,307.10 C472.39,313.00 472.16,313.52 470.39,324.13 C469.39,330.13 471.55,337.74 475.13,340.82 C479.05,344.19 482.73,345.90 486.19,345.95 C489.80,346.02 490.28,347.14 488.34,351.02 C484.31,359.11 475.15,365.17 464.37,366.88 C456.72,368.09 212.69,369.05 210.83,367.87 Z" fill="rgb(251,251,247)"/>
</g>
</svg>